<?xml version="1.0" standalone="no"?>
<!DOCTYPE svg PUBLIC "-//W3C//DTD SVG 1.1//EN" "http://www.w3.org/Graphics/SVG/1.1/DTD/svg11.dtd" >
<svg xmlns="http://www.w3.org/2000/svg">
<metadata>
This is a custom SVG webfont generated by Font Squirrel.
Copyright   : 1991 B  P Graphics Ltd       
</metadata>
<defs>
<font id="MontrealMedium" horiz-adv-x="1214" >
<font-face units-per-em="2048" ascent="1638" descent="-410" />
<missing-glyph horiz-adv-x="593" />
<glyph unicode=" "  horiz-adv-x="593" />
<glyph unicode="&#x09;" horiz-adv-x="593" />
<glyph unicode="&#xa0;" horiz-adv-x="593" />
<glyph unicode="!" horiz-adv-x="503" d="M106 113q0 59 43.5 102t102.5 43q57 0 104 -43q41 -43 41 -103.5t-41 -101.5q-47 -43 -102 -43q-61 0 -104.5 42.5t-43.5 103.5zM137 381v1094h230v-1094h-230z" />
<glyph unicode="&#x22;" horiz-adv-x="636" d="M96 1004l41 471h158l-43 -471h-156zM344 1004l41 471h156l-41 -471h-156z" />
<glyph unicode="#" horiz-adv-x="1198" d="M96 459l23 102h235l74 352h-235l20 103h238l90 430h102l-92 -430h215l90 430h100l-90 -430h236l-21 -103h-235l-76 -352h236l-21 -102h-235l-93 -430h-100l90 430h-213l-92 -430h-100l90 430h-236zM455 561h215l73 352h-213z" />
<glyph unicode="$" horiz-adv-x="1054" d="M-4 250l143 151q8 -14 29 -43q98 -133 236.5 -172t236.5 29q100 63 112.5 172t-65.5 166q-43 33 -174 88q-33 12 -49 21q-285 109 -367 286.5t58 366.5q115 166 293 170v151h149v-147q209 -10 344 -182l25 -37l-156 -133q-12 20 -18 28q-68 94 -164 123q-23 8 -41 10 q-102 16 -176 -32q-78 -49 -89.5 -140.5t50.5 -148.5q49 -47 219 -111q6 -2 24.5 -10t28.5 -12q283 -119 343.5 -332t-134.5 -410q-106 -109 -256 -118v-166h-149v157q-121 -2 -233 58.5t-191 171.5q-15 20 -29 45z" />
<glyph unicode="%" horiz-adv-x="1789" d="M63 1120.5q0 159.5 113 273t275 111.5q156 0 272 -112q113 -113 113 -271.5t-113 -273.5q-117 -113 -274 -113q-160 0 -273 113t-113 272.5zM252 1120q0 -86 59 -145q55 -59 137 -59.5t140 59.5q59 59 59 145t-59 148q-57 59 -138 59t-139 -59q-59 -60 -59 -148zM389 29 l821 1478l170 -96l-823 -1477zM954 354q-2 160 111 273.5t274 113.5q158 0 275 -112q113 -113 111.5 -273.5t-113.5 -273.5q-117 -115 -275 -111q-158 0 -269.5 112.5t-113.5 270.5zM1143 354q0 -84 59 -147q55 -59 136 -59.5t139 59.5q61 61 61 147t-59 150 q-57 59 -139.5 59t-137.5 -59q-59 -64 -59 -150z" />
<glyph unicode="&#x26;" horiz-adv-x="1355" d="M76 328q-68 313 276 522q8 4 20.5 12t20.5 12q-16 16 -22 27q-55 63 -92 143q-74 154 1.5 290t251.5 163q23 4 70 4q70 0 137 -22q158 -51 206 -191.5t-46 -277.5q-55 -76 -164 -156q-4 -4 -33 -23l312 -368l184 176l145 -147l-190 -183l186 -209l-159 -139l-197 223 l-43 -37q-139 -111 -249.5 -150.5t-227.5 -23.5q-150 20 -254 117t-133 238zM298 495.5q-36 -100.5 36 -202.5q158 -233 481 20q6 4 16.5 13.5t14.5 13.5l-326 385q-10 -8 -31 -20q-155 -109 -191 -209.5zM475.5 1245.5q-24.5 -63.5 22.5 -153.5q8 -16 30 -48q33 -45 52 -63 q6 4 15 12t11 8q86 66 117 119q35 66 9.5 124.5t-95.5 72.5q-35 6 -59 2q-78 -10 -102.5 -73.5z" />
<glyph unicode="'" horiz-adv-x="391" d="M96 1004l41 471h158l-43 -471h-156z" />
<glyph unicode="(" horiz-adv-x="479" d="M152 160q-154 578 0 1155q61 233 163 436l156 -72q-86 -211 -125 -401q-63 -309 -63 -540.5t63 -540.5q39 -190 125 -402l-156 -71q-102 203 -163 436z" />
<glyph unicode=")" horiz-adv-x="481" d="M8 -203q86 213 129 436q57 295 57.5 504t-57.5 504q-39 211 -129 432l154 72q109 -215 168 -445q78 -303 78 -562t-78 -570q-57 -223 -168 -440z" />
<glyph unicode="*" horiz-adv-x="880" d="M53 1124l45 209l260 -98l-26 281h211l-31 -285l266 100l49 -209l-276 -32l168 -220l-184 -106l-103 233l-113 -227l-184 117l182 207z" />
<glyph unicode="+" d="M109 641v193h387v387h223v-387h387v-193h-387v-387h-223v387h-387z" />
<glyph unicode="," horiz-adv-x="419" d="M14 -274l113 567l240 -49l-191 -553z" />
<glyph unicode="-" horiz-adv-x="630" d="M68 387v221h495v-221h-495z" />
<glyph unicode="." horiz-adv-x="397" d="M53 115q0 59 43 102t103.5 43t101.5 -43q43 -43 43 -103.5t-41 -103.5q-43 -43 -103.5 -43t-103.5 43.5t-43 104.5z" />
<glyph unicode="/" horiz-adv-x="526" d="M6 0l330 1516l184 -41l-327 -1516z" />
<glyph unicode="0" d="M59 733.5q0 321.5 128 520t327 237.5q238 47 421 -124t214 -507q20 -229 -25 -413.5t-137 -293t-215 -155.5t-258 -21q-199 39 -327 237t-128 519.5zM293 733q0 -145 26 -248q25 -86 58 -147q74 -131 204 -146.5t218 91.5q61 74 96 202q27 102 27 248q0 147 -27 250 q-35 129 -96 201q-88 109 -217 92.5t-205 -146.5q-33 -61 -58 -147q-26 -103 -26 -250z" />
<glyph unicode="1" d="M283 0v193h217v1089h-215v193h444v-1282h215v-193h-661z" />
<glyph unicode="2" d="M104 989q-4 25 0 53q10 236 184.5 368t434.5 85q244 -45 347.5 -254t-15.5 -424q-61 -111 -211 -248q-18 -18 -56 -51l-370 -325l715 4v-197h-1027v178l506 457q57 49 121 119q152 170 142.5 314t-152.5 204q-156 63 -271.5 -13.5t-115.5 -228.5q0 -16 4 -41h-236z" />
<glyph unicode="3" horiz-adv-x="1212" d="M92 438h234q0 -4 1 -12t1 -14q12 -131 105 -198t233 -40q80 16 135 69.5t73 129.5q10 55 3 100q-16 98 -94 154.5t-201 50.5q-12 0 -33 -4v194q6 0 14 -2t15 -2q96 -8 165.5 42t85.5 136q25 121 -59 204t-217 61q-82 -12 -132 -62.5t-61 -128.5q-2 -10 -2 -26h-225 q2 8 4 23t2 24q25 147 125.5 244.5t255.5 117.5q201 27 347.5 -60t183.5 -241q29 -121 -13.5 -226.5t-140.5 -160.5q-25 -14 -47 -23q53 -14 106 -47q94 -63 135.5 -173.5t12.5 -237.5q-35 -156 -168 -257.5t-318 -105.5q-225 -6 -364 110t-160 314q0 8 -1 23.5t-1 23.5z " />
<glyph unicode="4" d="M66 383l737 1092h166v-1041h170v-180h-170l-2 -254h-228v254h-618zM332 434h407v516q0 53 15 113q4 23 12 43q-8 -20 -21 -41q-31 -66 -57 -102z" />
<glyph unicode="5" horiz-adv-x="1212" d="M49 231l127 156q18 -37 47 -72q25 -29 39 -41q72 -66 162 -90t172 -7.5t150.5 70.5t99.5 134q63 168 -28 301t-279 141q-84 4 -168 -24q-6 -2 -19.5 -7.5t-19.5 -7.5l-86 39l174 652h670v-193h-506l-86 -295q6 0 19 3t20 5q172 25 315 -52t209.5 -226.5t28.5 -323.5 q-47 -215 -231.5 -334.5t-424.5 -83.5q-94 16 -160 52q-151 73 -225 204z" />
<glyph unicode="6" horiz-adv-x="1212" d="M83.5 384q-20.5 157 59.5 333q29 53 52 86l24 37l107 145l385 528l172 -122l-367 -478q35 12 66 19q227 41 393 -100.5t158 -370.5q-8 -233 -187.5 -378.5t-429.5 -111.5q-176 25 -294 140.5t-138.5 272.5zM303 449q6 -109 72.5 -184t173.5 -91q61 -10 119 2 q160 31 219 180q51 135 -12.5 253t-202.5 147q-135 29 -240.5 -44t-124.5 -204q-4 -41 -4 -59z" />
<glyph unicode="7" d="M104 63l750 1219h-741v193h997v-168l-809 -1344z" />
<glyph unicode="8" horiz-adv-x="1212" d="M117 479q20 104 84.5 180t158.5 105q-113 37 -172 148.5t-34 254.5q27 150 148.5 242t303.5 92t304 -92t151 -242q25 -143 -34.5 -254.5t-172.5 -148.5q106 -35 175 -129t75 -208t-53 -230q-63 -109 -178 -169.5t-267 -60.5q-246 0 -388 153.5t-101 358.5zM350 406 q0 -31 8 -54q23 -84 88.5 -134t159.5 -50q92 0 160 50t90 134q12 55 4 107q-14 82 -68.5 134t-138.5 69q-47 10 -94 0q-84 -14 -137 -68.5t-70 -134.5q-4 -37 -2 -53zM373 1075q4 -90 56 -147.5t140 -69.5q37 -6 74 0q154 23 188 164q27 106 -24 188t-156 99 q-121 20 -201.5 -49.5t-76.5 -184.5z" />
<glyph unicode="9" d="M92 1104q39 180 179.5 290.5t338.5 112.5q139 2 254 -54t180.5 -149.5t87 -214t-25.5 -247.5q-45 -119 -199 -330l-403 -553l-172 123l368 481q-197 -82 -401 39q-127 74 -183.5 210t-23.5 292zM305 1008q0 -18 4 -56q16 -92 80 -155.5t162 -79.5q66 -12 125 2 q94 20 155.5 85.5t75.5 162.5q23 158 -86.5 259t-271.5 70q-92 -16 -155.5 -78.5t-82.5 -152.5q-6 -28 -6 -57z" />
<glyph unicode=":" horiz-adv-x="503" d="M106 115q0 59 43.5 102t103.5 43t101 -43q43 -43 43 -103.5t-41 -103.5q-43 -43 -103 -43t-103.5 43.5t-43.5 104.5zM109 809q-2 57 41 104q43 43 103 43t101 -43q43 -43 43 -103t-43 -101q-43 -43 -102 -43t-100 41q-43 39 -43 102z" />
<glyph unicode=";" horiz-adv-x="462" d="M33 -274l112 567l240 -51l-190 -551zM80 809q2 61 45 104t102 41q61 0 103 -41q43 -43 43 -103t-43 -103q-47 -43 -105 -43q-59 2 -102 44t-43 101z" />
<glyph unicode="&#x3c;" horiz-adv-x="1054" d="M96 737l862 486v-179l-567 -307l567 -307v-178z" />
<glyph unicode="=" d="M117 498v190h981v-190h-981zM117 786v191h981v-191h-981z" />
<glyph unicode="&#x3e;" horiz-adv-x="1054" d="M96 252v178l568 307l-568 307v179l862 -486z" />
<glyph unicode="?" horiz-adv-x="1042" d="M8 1106q4 23 21 78q49 131 151.5 214t239.5 101q193 27 341 -58t206 -247q61 -174 0.5 -322.5t-230.5 -240.5q-63 -33 -114 -56l-2 -2l-23 -12l-12 -8l-8 -6q-12 -10 -19 -39l-4 -25v-8v-94h-223v141q2 78 18.5 110t69.5 56l37 17l26 12l78 37q133 63 180 139t31 194 q-12 84 -65 140q-100 109 -256 84q-84 -14 -140.5 -66.5t-77.5 -134.5q-6 -25 -6 -47zM299 114.5q0 61.5 43 104.5q41 41 102.5 42t102.5 -42q43 -43 43 -104.5t-43 -104.5t-103.5 -42t-103.5 44q-41 41 -41 102.5z" />
<glyph unicode="@" horiz-adv-x="1593" d="M119 788q14 233 145 412q197 264 504 301q342 39 553 -187.5t154 -574.5q-33 -190 -128.5 -307t-207.5 -133q-94 -14 -155.5 39t-53.5 133q-10 -37 -41 -74q-113 -131 -268 -61q-172 78 -158 364q4 49 8 72q31 195 137 318q106 121 225 118.5t175 -108.5l5 -10l5 -11 l18 117l101 -2l-78 -440l-29 -179q-12 -78 4 -126q10 -37 44 -54.5t71 -3.5q49 16 117 94q80 98 106 275q45 307 -135 494.5t-469 144.5q-244 -37 -397.5 -248t-126.5 -496q6 -66 20 -114q39 -158 136.5 -271.5t222.5 -165t272 -39t283 96.5q49 29 100 74q66 55 111 116 l41 -73q-33 -41 -52 -60q-233 -244 -544 -248q-319 0 -528.5 234.5t-186.5 582.5zM582 596q2 -76 26 -127q29 -61 95.5 -72.5t115.5 37.5q51 49 96 176q18 55 37 154l4 20l15 86q8 72 2 121q-12 74 -69.5 108t-119.5 7q-55 -23 -92 -73t-71 -154q-12 -39 -27 -101 q-16 -102 -12 -182z" />
<glyph unicode="A" horiz-adv-x="1275" d="M-59 0l587 1475h220l587 -1475h-250l-141 367h-612l-142 -367h-249zM403 555h469l-192 518q-39 96 -41 195q-6 -98 -41 -195z" />
<glyph unicode="B" horiz-adv-x="1136" d="M106 0v1475h373q176 0 254 -31q180 -72 225 -242q16 -58 16 -112q0 -72 -28 -136q-49 -113 -155 -157q25 -2 53 -13q135 -43 204 -166q47 -85 47 -186q0 -45 -10 -94q-29 -156 -152.5 -247t-316.5 -91h-510zM342 197h221q254 0 291 186q6 31 6 59q0 87 -62 147 q-83 79 -253 79h-203v-471zM342 860h156q184 0 231 131q19 48 19 90q0 64 -43 114q-72 83 -228 83h-135v-418z" />
<glyph unicode="C" horiz-adv-x="1333" d="M61 662q-4 36 -3 71q0 144 59 291q94 250 324 380q173 98 376 98q67 0 137 -11q197 -33 349 -150l-123 -182q-150 121 -331 121q-58 0 -118 -12q-166 -33 -279.5 -151t-142.5 -286q-9 -56 -9 -108q0 -173 98 -312q128 -181 354 -218q48 -8 93 -8q184 0 335 124l120 -182 q-203 -152 -460 -158q-20 -1 -41 -1l-103 7q-174 25 -316 123.5t-221.5 242t-97.5 321.5z" />
<glyph unicode="D" horiz-adv-x="1335" d="M106 0v1475h392q322 0 522 -164q254 -209 254 -570q-2 -328 -208 -534.5t-523 -206.5h-437zM342 209h207q213 0 354 150q139 148 139 380t-149 380q-147 146 -371 147h-180v-1057z" />
<glyph unicode="E" horiz-adv-x="978" d="M106 0v1475h789v-197h-553v-385h475v-197h-475v-499h578v-197h-814z" />
<glyph unicode="F" horiz-adv-x="837" d="M106 0v1475h736v-197h-500v-385h434v-197h-434v-696h-236z" />
<glyph unicode="G" horiz-adv-x="1597" d="M74 877q43 233 202.5 398t385.5 210q95 19 183 19q318 0 550 -242q41 -43 67 -82l-192 -138q-51 74 -103 117q-135 119 -306 131l-38 2q-149 0 -278 -86q-145 -96 -209 -272q-16 -43 -27 -103q-9 -58 -9 -113q0 -176 95 -316q125 -183 348 -218q50 -8 98 -8q141 0 253 74 q150 98 188 280q4 14 8 43h-483v207h737q3 -33 3 -65.5t-3 -65.5q-27 -348 -266 -535q-187 -146 -442 -146q-72 0 -150 12q-231 37 -389 186q-139 127 -200 316q-38 118 -37 242q0 75 14 153z" />
<glyph unicode="H" horiz-adv-x="1343" d="M106 0v1475h236v-568h659v568h236v-1475h-236v700h-659v-700h-236z" />
<glyph unicode="I" horiz-adv-x="448" d="M106 0v1475h236v-1475h-236z" />
<glyph unicode="J" horiz-adv-x="735" d="M-53 82l119 178q14 -16 38 -35q63 -43 123 -43q20 0 40 5q79 19 106 96q20 53 20 209v983h236v-1010q0 -266 -107 -388q-94 -107 -267 -108q-23 0 -48 2q-125 12 -230 88q-10 7 -30 23z" />
<glyph unicode="K" horiz-adv-x="1128" d="M106 0v1475h238l-2 -680l524 680h289l-551 -709l608 -766h-288l-580 737v-737h-238z" />
<glyph unicode="L" horiz-adv-x="808" d="M106 0v1475h236v-1268h467v-207h-703z" />
<glyph unicode="M" horiz-adv-x="1753" d="M29 0l202 1475h205l395 -986q27 -63 39 -163l7 -43l6 43q16 115 39 163l395 986h205l202 -1475h-235l-111 885q0 10 -3 48t-5 64q0 70 2 105q-6 -49 -18 -98q-16 -61 -33 -101l-367 -903h-155l-367 903q-25 59 -45 154q-4 12 -8 45q0 -8 1 -20.5t1 -20.5q1 -30 0 -56 q0 -78 -4 -120l-113 -885h-235z" />
<glyph unicode="N" horiz-adv-x="1523" d="M106 0v1475h216l790 -990q41 -51 88 -155q2 -6 7 -18.5t7 -18.5l-6 37l-12 65q-14 84 -14 125v955h235v-1475h-209l-800 997q-29 37 -58 90q-20 39 -43 95l10 -52l9 -49q16 -102 16 -114v-967h-236z" />
<glyph unicode="O" horiz-adv-x="1665" d="M61 735.5q0 241.5 126 433t338 279.5q142 59 299 59q77 0 157 -14q233 -41 398 -206t210 -398q16 -84 16 -164q0 -230 -131 -425q-177 -263 -493 -320q-80 -14 -157 -15q-157 0 -299 60q-212 88 -338 278.5t-126 432zM297 735q0 -172 92 -309t238 -198q99 -41 204 -41 q50 0 103 10q215 43 342 229q57 88 80 197q11 61 11 119q0 165 -91 305q-94 139 -240 199q-96 40 -200 40q-53 0 -107 -10q-209 -39 -340 -229q-92 -140 -92 -312z" />
<glyph unicode="P" horiz-adv-x="1001" d="M106 0v1475h390q266 0 395 -141q98 -106 98 -272q0 -53 -10 -112q-27 -154 -139.5 -241.5t-292.5 -87.5h-205v-621h-236zM342 817h141q111 0 177.5 48t82.5 134q6 32 7 61q0 83 -53 140q-71 78 -212 78h-143v-461z" />
<glyph unicode="Q" horiz-adv-x="1660" d="M76 580q-16 83 -16 162q0 117 34 228q57 185 181 311t309 186q117 38 242 39q72 0 147 -13q317 -53 495 -316q131 -194 132 -427q0 -83 -17 -170q-41 -221 -197 -390l213 -186l-161 -154l-211 220q-123 -70 -262 -93q-74 -12 -145 -11q-238 0 -434 133q-253 174 -310 481 zM299 735q0 -172 90 -308t244 -200q97 -39 192 -39q49 0 99 11q360 72 428 430q11 58 11 113q0 108 -42 209q-63 153 -199 243q-133 90 -291.5 90t-293.5 -90q-47 -31 -82 -68q-156 -155 -156 -391z" />
<glyph unicode="R" horiz-adv-x="1054" d="M106 0v1475h392q424 0 487 -328q12 -59 12 -113q0 -115 -54 -205q-79 -131 -253 -178q-6 -2 -17 -5t-18 -3l432 -643h-282l-463 719v-719h-236zM342 780h127q236 0 279 191q9 39 9 74q0 96 -69 165q-68 68 -209 68h-137v-498z" />
<glyph unicode="S" horiz-adv-x="1054" d="M-4 250l143 151q8 -14 29 -43q98 -133 236 -172q51 -14 96 -14q78 0 141 43q100 63 113 172q2 15 1 29q0 88 -67 137q-43 33 -174 88q-33 12 -49 21q-197 74 -266 137q-92 80 -116 201q-7 38 -7 76q0 84 36 166q52 120 169 192q105 67 252 67q42 0 88 -6 q197 -27 321 -188l25 -37l-156 -133q-12 20 -18 28q-68 94 -164 123q-23 8 -41 10q-26 4 -50 5q-71 0 -126 -37q-78 -49 -89 -141q-2 -14 -2 -27q0 -73 52 -121q49 -47 219 -111q6 -2 24.5 -10t28.5 -12q260 -109 332 -291q25 -63 24 -127q0 -124 -90 -256 q-138 -201 -415 -201q-40 0 -82 4q-244 25 -389 232q-15 20 -29 45z" />
<glyph unicode="T" horiz-adv-x="884" d="M-33 1260v215h951v-215h-357v-1260h-235v1260h-359z" />
<glyph unicode="U" horiz-adv-x="1318" d="M106 575v900h236v-875q0 -205 58.5 -295t197.5 -112q31 -6 61 -7l62 7q139 23 197.5 112.5t58.5 294.5v875h235v-900q0 -326 -176 -487q-135 -124 -348 -124q-65 0 -137 11q-227 37 -336 182.5t-109 417.5z" />
<glyph unicode="V" horiz-adv-x="1153" d="M-59 1475h254l342 -986q20 -59 34 -174q2 -14 7 -47q2 37 14 115q14 70 26 106l340 986h254l-540 -1475h-191z" />
<glyph unicode="W" horiz-adv-x="1939" d="M-45 1475h244l299 -975q20 -61 30 -183q2 -8 3 -23t1 -24q2 41 15 113q10 74 20 115l301 977h203l299 -977q14 -49 33 -185q0 -14 4 -43q0 8 1 24.5t1 22.5q14 125 33 183l299 975h244l-478 -1475h-204l-291 946q-18 59 -39 215q-2 6 -2 20.5t-2 20.5q0 -12 -4 -41 q-14 -137 -39 -215l-291 -946h-203z" />
<glyph unicode="X" horiz-adv-x="1245" d="M-23 0l488 793l-414 682h275l202 -351q74 -123 95 -252q20 129 94 252l203 351h274l-414 -682l488 -793h-277l-291 502q-63 113 -77 231q-14 -121 -80 -231l-289 -502h-277z" />
<glyph unicode="Y" horiz-adv-x="1015" d="M-66 1475h271l258 -498q29 -53 41 -123q2 -8 4 -22.5t2 -16.5q4 43 14 82q12 43 31 82l258 496h268l-456 -824v-651h-234v651z" />
<glyph unicode="Z" horiz-adv-x="1112" d="M20 0v131l672 1053q20 35 53 67q20 25 56 52q-2 0 -14.5 -6.5t-20.5 -8.5q-63 -20 -131 -20h-545v207h967v-127l-666 -1051q-27 -41 -57 -74q-29 -29 -60 -53q6 2 17.5 6t15.5 6q78 25 129 25h649v-207h-1065z" />
<glyph unicode="[" horiz-adv-x="493" d="M111 -225v1927h368v-195h-143v-1540h143v-192h-368z" />
<glyph unicode="\" horiz-adv-x="608" d="M96 1475h156l260 -1475h-158z" />
<glyph unicode="]" horiz-adv-x="493" d="M14 -33h144v1540h-144v195h369v-1927h-369v192z" />
<glyph unicode="^" horiz-adv-x="1165" d="M96 348l486 862l487 -862h-178l-309 567l-308 -567h-178z" />
<glyph unicode="_" horiz-adv-x="929" d="M96 0h738v-61h-738v61z" />
<glyph unicode="`" horiz-adv-x="536" d="M2 1391l180 118l238 -331l-141 -93z" />
<glyph unicode="a" horiz-adv-x="1202" d="M68 582q20 152 112 268q92 115 230 155q66 19 129 19q69 0 135 -23q127 -43 194 -153v147h228v-995h-228v137q-59 -96 -169 -140q-72 -29 -156 -29q-43 0 -88 7q-147 27 -248 132.5t-133 271.5q-12 59 -12 119q0 42 6 84zM289 481q4 -45 8 -65q37 -174 182 -232 q54 -22 108 -22q74 0 146 43q119 70 144 235q4 31 4 61q0 68 -23 129q-33 87 -102 138q-81 59 -169 59q-47 0 -95 -17q-139 -48 -185 -200q-18 -61 -18 -129z" />
<glyph unicode="b" horiz-adv-x="1204" d="M106 0v1475h228v-621q12 14 22 33q112 137 292 137q54 0 114 -12q123 -25 213 -106t133 -206q37 -106 37 -207q0 -126 -56 -244q-101 -214 -307 -265q-63 -16 -122 -17q-75 0 -144 27q-123 47 -182 149v-143h-228zM326 498q0 -225 178 -299q64 -27 123 -27q71 0 135 38 q119 71 143 228q5 33 5 64q0 104 -53 187q-69 108 -187 130q-34 7 -65 7q-100 0 -177 -70q-100 -92 -102 -258z" />
<glyph unicode="c" horiz-adv-x="919" d="M70 586q37 217 210 339q138 97 316 97q45 0 92 -6q111 -12 211 -66l-72 -192q-29 16 -43 22q-89 36 -169 37q-78 0 -148 -35q-141 -70 -168 -231q-6 -35 -6 -68q0 -129 90 -219q91 -91 222 -91q31 0 65 5q53 6 106 33q23 10 49 27l78 -177q-100 -68 -223 -86 q-52 -8 -101 -8q-128 0 -239 55q-154 75 -228 226q-52 105 -52 227q0 54 10 111z" />
<glyph unicode="d" horiz-adv-x="1206" d="M70 594q27 162 131 276.5t245 141.5q59 12 112 11q181 0 290 -136q4 -4 12 -16.5t12 -16.5v621h228v-1475h-228v147q-51 -102 -164 -149q-73 -30 -162 -30q-50 0 -106 9q-186 31 -297 207q-83 132 -83 297q1 55 10 113zM369 272q70 -86 180 -102q25 -4 49 -4q96 0 171 60 q93 75 112 212q5 35 4 67q0 120 -66 206q-84 109 -225 112q-127 0 -213 -93q-84 -91 -84 -234q0 -135 72 -224z" />
<glyph unicode="e" horiz-adv-x="1136" d="M68 571q23 170 129 288t262 151q70 15 134 14q169 0 296 -101q176 -140 190 -413q1 -12 1 -26q0 -29 -3 -70h-784l6 -37q23 -92 83 -150.5t148 -72.5q31 -6 60 -4q125 4 225 106q31 29 57 74l181 -115l-15 -18l-16 -21q-158 -203 -426 -209h-12q-252 0 -401 169 q-123 139 -123 337q1 47 8 98zM293 580h549q0 10 -4 34q-16 123 -111 187q-66 45 -147 44q-34 0 -70 -7q-29 -6 -53 -19q-119 -55 -156 -198q-4 -12 -8 -41z" />
<glyph unicode="f" horiz-adv-x="534" d="M-4 803v192h147v158q0 197 138 292q85 59 199 59q72 0 155 -23l37 -13l-41 -178q-4 2 -13.5 5t-13.5 5q-44 14 -81 15q-53 0 -89 -30q-61 -50 -61 -169v-121h258v-192h-258v-803h-230v803h-147z" />
<glyph unicode="g" horiz-adv-x="1200" d="M61 487q0 196 99 338q100 145 260 185q66 16 126 16q78 0 147 -27q124 -47 173 -147v143h228v-950q0 -229 -151 -352q-135 -110 -379 -110q-28 0 -58 1q-250 12 -395 199q-2 2 -12.5 16.5t-14.5 22.5l162 133q10 -18 20 -33q94 -125 256 -145q31 -4 60 -4q96 0 166 43 q90 55 112 155q6 25 6 49v105q-25 -33 -39 -47q-102 -107 -269 -107q-41 0 -87 6q-176 25 -292 163q-118 141 -118 347zM293 487q2 -129 70.5 -215t177.5 -104q26 -5 52 -5q39 0 77 11q188 51 213 270q3 29 3 57q0 94 -38 169q-49 96 -143 139q-60 28 -121 28l-125 -30 q-139 -68 -164 -250q-3 -30 -3 -51q0 -11 1 -19z" />
<glyph unicode="h" horiz-adv-x="1093" d="M106 0v1475h228v-611q16 20 22 29q90 100 203 121q54 10 101 10q129 0 212 -77q115 -105 115 -326v-621h-231v575q0 45 -8 99q-16 94 -108 133q-38 16 -76 16q-55 0 -111 -32q-119 -70 -119 -267v-524h-228z" />
<glyph unicode="i" horiz-adv-x="442" d="M80 1282q0 53 42 93t101.5 40t104.5 -41q43 -37 43 -93t-41 -95q-45 -41 -106.5 -41t-102.5 41t-41 96zM111 0v995h229v-995h-229z" />
<glyph unicode="j" horiz-adv-x="446" d="M-174 -375l45 189q2 0 10 -3.5t13 -5.5q48 -15 84 -14q55 0 85 33q51 55 52 217v954h229v-999q0 -250 -122 -347q-74 -59 -191 -59q-77 0 -172 25q-6 2 -16.5 5t-16.5 5zM84 1282q0 55 42 95t103 40q59 0 105 -41q41 -39 41 -94t-41 -94q-45 -41 -105 -41q-61 0 -103 40 t-42 95z" />
<glyph unicode="k" horiz-adv-x="964" d="M119 0v1475h227v-924l356 444h285l-381 -469l432 -526h-290l-402 518v-518h-227z" />
<glyph unicode="l" horiz-adv-x="442" d="M106 0v1475h230v-1475h-230z" />
<glyph unicode="m" horiz-adv-x="1632" d="M106 0v995h228v-149q12 20 20 28q78 109 191 134q48 11 93 11q67 0 126 -26q98 -43 141 -135q23 37 51 62q72 72 168 92q43 9 85 9q58 0 113 -19q93 -32 144 -99q37 -49 48.5 -100t11.5 -170v-633h-230v584q0 133 -56 190q-39 40 -100 40q-26 0 -57 -7 q-154 -41 -153 -246v-561h-228v588q0 68 -4 88q-10 88 -89 124q-34 15 -69 15q-47 0 -96 -27q-109 -61 -110 -235v-553h-228z" />
<glyph unicode="n" horiz-adv-x="1095" d="M106 0v995h228v-153q12 18 14 20q84 129 238 156q43 7 81 7q131 0 215 -81q108 -104 107 -315v-629h-229v573q0 141 -68 208q-48 48 -120 48q-29 0 -62 -8q-176 -43 -176 -278v-543h-228z" />
<glyph unicode="o" horiz-adv-x="1200" d="M61 496q0 225 153 375.5t386 150.5q268 0 424 -191q116 -142 116 -324q0 -63 -14 -130q-41 -203 -216 -319q-136 -90 -304 -90q-48 0 -98 7q-201 31 -324 174.5t-123 346.5zM285 496q-2 -123 69.5 -212t188.5 -112q29 -5 57 -5l57 5q133 27 206 136q54 82 55 184 q0 34 -7 71q-16 98 -84.5 168t-169.5 88q-30 5 -58.5 5t-55.5 -5q-117 -23 -187.5 -110.5t-70.5 -212.5z" />
<glyph unicode="p" horiz-adv-x="1204" d="M106 -385v1380h228v-166q16 29 20 33q61 96 169 137q65 25 142 25q50 0 105 -10q184 -35 291 -205q81 -130 81 -298q0 -52 -7 -108q-20 -162 -115.5 -274.5t-231.5 -144.5q-66 -16 -126 -16q-80 0 -150 28q-123 49 -178 160v-539zM510 188q63 -26 122 -25q72 0 136 39 q117 71 141 230q4 31 4 61.5t-4 61.5q-23 147 -122 219q-70 50 -156 50q-37 0 -78 -9q-106 -25 -167 -112q-58 -84 -58 -207q0 -235 182 -308z" />
<glyph unicode="q" horiz-adv-x="1196" d="M71 605q28 153 124 263.5t227 141.5q62 14 119 13q179 0 299 -138q16 -16 22 -27v137h228v-1378l-228 -2v524q-23 -35 -53 -65q-110 -107 -274 -107q-52 0 -109 10q-113 23 -200 103t-130 201q-35 113 -35 218q1 54 10 106zM289 489q0 -103 45 -181q47 -81 129 -120 q35 -16 57 -20q37 -8 71 -8q101 0 180 71q103 94 104 262q0 3 -1 7q-4 213 -165 295q-68 34 -134 33q-66 0 -130 -34q-126 -69 -152 -233q-4 -41 -4 -72z" />
<glyph unicode="r" horiz-adv-x="653" d="M106 0v995h228v-180q4 6 8 19.5t8 21.5q45 92 136 135q62 29 133 29q34 0 69 -6q20 -4 31 -8l-49 -232q-8 4 -25 8q-43 12 -82 13q-104 0 -174 -88q-33 -39 -44 -78t-11 -115v-514h-228z" />
<glyph unicode="s" horiz-adv-x="804" d="M4 180l150 121q6 -16 14 -27q61 -100 169 -119q25 -4 46 -5q73 0 111 51q31 37 31 77q0 15 -5 30q-16 56 -84 87l-35 17l-51 20q-25 8 -37 14q-154 66 -208 145q-37 54 -37 125q0 32 8 68q27 119 139 187q84 51 192 50q36 0 74 -5q174 -25 258 -170l-143 -119 q-8 12 -10 16q-69 96 -154 96q-11 0 -22 -1q-51 -6 -82 -39q-29 -33 -29 -70q0 -49 45 -74q29 -16 55 -26l84 -33l37 -14l47 -21q113 -47 160 -134q30 -56 30 -122q0 -37 -9 -78q-12 -41 -23 -61q-47 -102 -152 -156q-85 -43 -195 -43q-26 0 -52 2q-190 18 -295 170 q-11 12 -27 41z" />
<glyph unicode="t" horiz-adv-x="593" d="M-18 803v192h145v260h227v-260h262v-192h-262v-443l2 -49v-35q4 -66 58 -95q29 -16 69 -16q33 0 74 11l21 6l18 8l43 -182q-6 -2 -17.5 -5t-17.5 -5q-96 -23 -174 -23q-171 0 -252 111q-31 43 -41 90t-10 156v471h-145z" />
<glyph unicode="u" horiz-adv-x="1103" d="M106 410v585h228v-563q0 -248 219 -248q217 0 217 248v563h227v-585q0 -379 -368 -435q-38 -4 -76.5 -4t-77.5 4q-369 56 -369 435z" />
<glyph unicode="v" horiz-adv-x="903" d="M-59 995h241l224 -549q23 -53 38 -137q0 -8 3.5 -25.5t5.5 -25.5q0 2 6 51q12 68 39 137l223 549h242l-426 -995h-170z" />
<glyph unicode="w" horiz-adv-x="1480" d="M-45 995h244l188 -532q16 -41 25 -88q12 -59 14 -94q4 37 8 53q12 68 35 129l186 532h170l187 -532q27 -74 37 -129q2 -16 6 -53q2 14 6 47q14 86 35 135l188 532h242l-379 -995h-170l-186 520q-37 111 -50 205q-2 -8 -5 -25.5t-3 -25.5q-10 -66 -43 -154l-186 -520h-168 z" />
<glyph unicode="x" horiz-adv-x="964" d="M-53 0l403 524l-364 471h282l158 -223q45 -66 55 -127q10 61 58 127l155 223h283l-363 -471l404 -524h-281l-190 260q-47 63 -66 143q-2 -8 -10 -38q-16 -51 -55 -105l-189 -260h-280z" />
<glyph unicode="y" horiz-adv-x="894" d="M-59 995h245l220 -569q33 -86 43 -180q12 84 47 180l219 569h250l-443 -1069q-4 -8 -11 -23.5t-9 -23.5q-86 -190 -196 -254q-64 -37 -151 -37q-62 0 -137 19q-6 2 -17 5t-15 5l45 199q4 0 11 -2t11 -4q42 -12 77 -13q41 0 71 18q55 32 100 138l21 51l10 25z" />
<glyph unicode="z" horiz-adv-x="946" d="M10 0v119l529 618q29 35 88 80l37 25l-19.5 -6.5l-19.5 -6.5q-94 -27 -125 -26h-426v192h856v-114l-524 -617q-8 -8 -24.5 -25.5t-27.5 -27.5q-59 -49 -78 -61q18 8 41 14q86 29 138 29h454v-193h-899z" />
<glyph unicode="{" horiz-adv-x="647" d="M96 737q55 4 92 44t37 104v676q0 145 166 145h160v-92h-25q-72 0 -95 -23.5t-23 -95.5v-594q0 -63 -41 -110.5t-105 -53.5q63 -6 104.5 -53t41.5 -111v-593q0 -72 23.5 -95.5t94.5 -23.5h25v-92h-160q-166 0 -166 145v676q0 63 -37 103t-92 44z" />
<glyph unicode="|" horiz-adv-x="348" d="M96 0v1475h156v-1475h-156z" />
<glyph unicode="}" horiz-adv-x="647" d="M96 -139h25q72 0 95.5 23.5t23.5 95.5v593q0 63 41 110.5t104 53.5q-63 6 -104 53.5t-41 110.5v594q0 72 -23.5 95.5t-95.5 23.5h-25v92h160q166 0 166 -145v-676q0 -63 37 -103.5t92 -44.5q-55 -4 -92 -44t-37 -103v-676q0 -145 -166 -145h-160v92z" />
<glyph unicode="~" horiz-adv-x="962" d="M96 590v37q12 160 99.5 216t224.5 1l158 -64q4 -2 12 -5t12 -5q61 -18 87 -10t42 51q4 10 12 43q0 12 2 18h121v-36q-12 -160 -99 -216.5t-224 -1.5l-160 64l-18 6q-66 23 -91.5 15.5t-42.5 -52.5q-4 -10 -12 -43q0 -12 -2 -18h-121z" />
<glyph unicode="&#xa1;" horiz-adv-x="503" d="M106 1355.5q0 59.5 43.5 101.5t102.5 42q59 4 102 -41q43 -43 43 -103.5t-43 -103.5q-41 -41 -102 -41q-59 0 -102.5 43t-43.5 102.5zM141 -2v1096h217v-1096h-217z" />
<glyph unicode="&#xa2;" horiz-adv-x="919" d="M70 588q18 106 73 192q141 221 375 226v155h144v-149q129 0 237 -62l-72 -192q-23 12 -45 22q-51 20 -108 31q-164 23 -272.5 -71.5t-106.5 -256.5q4 -166 133 -256t297 -37q51 14 100 48l78 -177q-29 -20 -65 -36q-86 -41 -176 -48v-174h-146v174q-213 6 -350 188.5 t-96 422.5z" />
<glyph unicode="&#xa3;" horiz-adv-x="1153" d="M59 0v213l168 315h-166v189h265l206 368q117 209 232 300.5t285 113.5q29 4 45 4v-211q-6 -2 -20.5 -4t-20.5 -2q-98 -18 -168 -77.5t-148 -192.5l-172 -299h309v-189h-405l-166 -317h787v-211h-1031z" />
<glyph unicode="&#xa4;" horiz-adv-x="937" d="M96 436l127 125q-57 80 -58 178.5t56 178.5l-123 118q25 37 64 72l127 -127q80 59 179 60t179 -58l125 127q35 -29 55 -53q0 -2 6.5 -9.5t8.5 -11.5l-127 -118q57 -80 57 -179.5t-59 -179.5l127 -127l-15 -16l-16 -15q-25 -25 -39 -34l-123 127q-80 -59 -179 -59.5 t-177 59.5l-129 -125q-35 24 -66 67zM264 737q0 -84 60.5 -143t144.5 -59t143.5 59t59.5 143t-59.5 143.5t-143.5 59.5t-144.5 -59.5t-60.5 -143.5z" />
<glyph unicode="&#xa5;" horiz-adv-x="1282" d="M68 1475h270l258 -498q29 -53 41 -123q2 -8 4 -22.5t2 -16.5q4 43 14 82q12 43 31 82l258 496h268l-331 -611h276v-178h-375l-26 -35v-41h401v-180h-395l-6 -430h-234v428h-387v184h387v39l-12 35h-371v178h273z" />
<glyph unicode="&#xa7;" horiz-adv-x="1200" d="M64.5 604q3.5 176 175.5 291q20 14 41 23q-16 16 -23 24q-31 37 -47 74q-47 96 -26.5 198.5t106.5 182.5q96 90 284 104q195 14 326 -74t166 -243q8 -41 8 -62l-221 -6q-14 76 -74.5 126t-150.5 56q-55 6 -97 -10q-84 -27 -103 -87t34 -124q43 -51 106 -84l342 -176 q256 -135 224 -389q-20 -150 -162 -254q-33 -23 -41 -27q61 -53 79.5 -139t-14.5 -182q-74 -203 -342 -236q-78 -8 -163 4q-154 23 -246 103t-115 207q-6 31 -6 61l231 4q4 -104 119 -159q25 -14 64 -21q90 -12 143 10q131 53 76 172q-14 33 -36 54.5t-69 48.5l-360 194 q-14 8 -68 41q-164 119 -160.5 295zM290.5 584q20.5 -84 123.5 -138l352 -180q10 4 41 23q31 23 39 28q84 72 74.5 163t-103.5 141l-360 186q-6 -2 -15.5 -6t-13.5 -6q-57 -35 -92 -70q-66 -57 -45.5 -141z" />
<glyph unicode="&#xa8;" horiz-adv-x="610" d="M-51 1227q0 57 41 98q39 39 96 38t96 -40q39 -41 39 -96.5t-39 -96t-96 -42t-98 39.5q-39 44 -39 99zM389 1227q4 59 41 96q39 39 96.5 40t96.5 -38q41 -39 42 -97.5t-40 -99.5q-39 -41 -97.5 -39.5t-97.5 41.5q-41 38 -41 97z" />
<glyph unicode="&#xa9;" horiz-adv-x="1765" d="M119 739.5q0 317.5 223 540.5t540.5 223t541 -223t223.5 -540.5t-223.5 -541t-541 -223.5t-540.5 223.5t-223 541zM221 739q0 -276 197 -477q193 -193 466 -192.5t466 192.5q195 199 194.5 476.5t-194.5 475.5q-193 195 -466.5 195t-465.5 -195q-197 -201 -197 -475z M416.5 657q-19.5 125 32.5 258q61 166 214.5 253t337.5 57q137 -25 238 -111l-61 -90q-78 68 -181 90q-184 35 -322 -82t-136 -309q0 -39 6 -76q18 -94 79.5 -166.5t142.5 -107.5t177 -30t180 58q27 18 50 37l63 -88q-131 -111 -317 -117q-131 -4 -243 52.5t-176.5 151.5 t-84 220z" />
<glyph unicode="&#xaa;" horiz-adv-x="913" d="M102 1061q-25 129 26.5 238.5t150 161.5t206.5 30q123 -27 179 -125l10 -16l6 -15v140h135l2 -678h-137v149l-6 -16q-45 -94 -150.5 -132t-224.5 9q-162 66 -197 254zM117 571v125h700v-125h-700zM236 1139q0 -25 6 -47q18 -98 94 -152q59 -39 125.5 -39t124.5 41 q74 53 92 148q10 49 0 98q-25 123 -127 170q-90 41 -178 2q-109 -49 -133 -178q-4 -29 -4 -43z" />
<glyph unicode="&#xab;" horiz-adv-x="1271" d="M68 500l550 487l127 -137l-405 -346l405 -357l-127 -143zM526 500l551 487l127 -137l-403 -346l403 -357l-127 -143z" />
<glyph unicode="&#xac;" horiz-adv-x="1187" d="M96 737v156h996v-451h-129v295h-867z" />
<glyph unicode="&#xad;" horiz-adv-x="630" d="M68 387v221h495v-221h-495z" />
<glyph unicode="&#xaf;" horiz-adv-x="694" d="M-2 1135v151h698v-151h-698z" />
<glyph unicode="&#xb0;" horiz-adv-x="745" d="M96 1226.5q0 114.5 81 195.5t195.5 81t195.5 -81t81 -195.5t-81 -195.5t-195.5 -81t-195.5 81t-81 195.5zM186 1227q0 -76 54.5 -130.5t132.5 -54.5t131 54q55 55 55 132t-55 130q-53 55 -131 55t-132.5 -55t-54.5 -131z" />
<glyph unicode="&#xb2;" d="M104 989q-4 25 0 53q10 236 184.5 368t434.5 85q244 -45 347.5 -254t-15.5 -424q-61 -111 -211 -248q-18 -18 -56 -51l-370 -325l715 4v-197h-1027v178l506 457q57 49 121 119q152 170 142.5 314t-152.5 204q-156 63 -271.5 -13.5t-115.5 -228.5q0 -16 4 -41h-236z" />
<glyph unicode="&#xb3;" horiz-adv-x="1212" d="M92 438h234q0 -4 1 -12t1 -14q12 -131 105 -198t233 -40q80 16 135 69.5t73 129.5q10 55 3 100q-16 98 -94 154.5t-201 50.5q-12 0 -33 -4v194q6 0 14 -2t15 -2q96 -8 165.5 42t85.5 136q25 121 -59 204t-217 61q-82 -12 -132 -62.5t-61 -128.5q-2 -10 -2 -26h-225 q2 8 4 23t2 24q25 147 125.5 244.5t255.5 117.5q201 27 347.5 -60t183.5 -241q29 -121 -13.5 -226.5t-140.5 -160.5q-25 -14 -47 -23q53 -14 106 -47q94 -63 135.5 -173.5t12.5 -237.5q-35 -156 -168 -257.5t-318 -105.5q-225 -6 -364 110t-160 314q0 8 -1 23.5t-1 23.5z " />
<glyph unicode="&#xb4;" horiz-adv-x="512" d="M117 1180l237 336l178 -119l-280 -307z" />
<glyph unicode="&#xb6;" horiz-adv-x="1220" d="M96 1075q0 166 116 283t280 117h632v-107h-632q-121 0 -205 -87t-82 -210q2 -121 86 -205t201 -84h141v496h112v-1278h-112v676h-141q-164 0 -280 116.5t-116 282.5zM881 0v1278h112v-1278h-112z" />
<glyph unicode="&#xb7;" d="M459 497.5q0 61.5 43 103.5t104 44q59 0 107 -43q45 -43 45 -104.5t-45 -106.5q-47 -43 -105 -43q-63 0 -106 44t-43 105.5z" />
<glyph unicode="&#xb8;" horiz-adv-x="378" d="M51 -354l164 284l162 -57l-187 -276z" />
<glyph unicode="&#xb9;" d="M283 0v193h217v1089h-215v193h444v-1282h215v-193h-661z" />
<glyph unicode="&#xba;" horiz-adv-x="913" d="M96 1141q0 41 8 73q35 172 183.5 252t312.5 11q117 -47 177.5 -162t33.5 -248q-20 -109 -96 -185.5t-185 -99.5q-74 -12 -145 0q-109 23 -185.5 99.5t-97.5 185.5q-6 37 -6 74zM109 571v125h698v-125h-698zM233 1141q0 -29 3 -43q23 -125 129 -174q102 -47 198 6t115 166 q12 74 -12.5 138t-79.5 103q-104 74 -221 23q-106 -51 -129 -174q-3 -14 -3 -45z" />
<glyph unicode="&#xbb;" horiz-adv-x="1273" d="M68 147l407 353l-407 356l127 137l553 -499l-555 -488zM526 147l408 353l-406 356l127 137l551 -499l-555 -488z" />
<glyph unicode="&#xbc;" horiz-adv-x="2830" d="M1682 383l737 1092h166v-1041h170v-180h-170l-2 -254h-228v254h-618zM1948 434h407v516q0 53 15 113q4 23 12 43q-8 -20 -21 -41q-31 -66 -57 -102zM974 0l754 1507l127 -65l-754 -1505zM283 0v193h217v1089h-215v193h444v-1282h215v-193h-661z" />
<glyph unicode="&#xbd;" horiz-adv-x="2830" d="M1720 989q-4 25 0 53q10 236 184.5 368t434.5 85q244 -45 347.5 -254t-15.5 -424q-61 -111 -211 -248q-18 -18 -56 -51l-370 -325l715 4v-197h-1027v178l506 457q57 49 121 119q152 170 142.5 314t-152.5 204q-156 63 -271.5 -13.5t-115.5 -228.5q0 -16 4 -41h-236z M974 0l754 1507l127 -65l-754 -1505zM283 0v193h217v1089h-215v193h444v-1282h215v-193h-661z" />
<glyph unicode="&#xbe;" horiz-adv-x="2828" d="M1680 383l737 1092h166v-1041h170v-180h-170l-2 -254h-228v254h-618zM1946 434h407v516q0 53 15 113q4 23 12 43q-8 -20 -21 -41q-31 -66 -57 -102zM972 0l754 1507l127 -65l-754 -1505zM92 438h234q0 -4 1 -12t1 -14q12 -131 105 -198t233 -40q80 16 135 69.5t73 129.5 q10 55 3 100q-16 98 -94 154.5t-201 50.5q-12 0 -33 -4v194q6 0 14 -2t15 -2q96 -8 165.5 42t85.5 136q25 121 -59 204t-217 61q-82 -12 -132 -62.5t-61 -128.5q-2 -10 -2 -26h-225q2 8 4 23t2 24q25 147 125.5 244.5t255.5 117.5q201 27 347.5 -60t183.5 -241 q29 -121 -13.5 -226.5t-140.5 -160.5q-25 -14 -47 -23q53 -14 106 -47q94 -63 135.5 -173.5t12.5 -237.5q-35 -156 -168 -257.5t-318 -105.5q-225 -6 -364 110t-160 314q0 8 -1 23.5t-1 23.5z" />
<glyph unicode="&#xbf;" horiz-adv-x="1042" d="M74.5 600.5q60.5 147.5 230.5 241.5q6 4 18.5 9t38 17.5t58.5 28.5l2 2l22 12l13 9l8 4q14 14 18 41l4 22v10v93h224v-142q0 -76 -17.5 -107.5t-70.5 -56.5l-37 -16l-27 -12l-78 -37q-133 -63 -180 -139t-31 -195q12 -84 66 -139q100 -109 256 -84q174 29 217 200 q6 25 6 48l219 -43q-4 -23 -20 -78q-49 -133 -151.5 -215t-239.5 -101q-193 -27 -341.5 58.5t-205.5 244.5q-62 177 -1.5 324.5zM453 1353.5q0 61.5 43 104.5t103 42t103 -44q41 -43 41 -103.5t-41 -103.5q-43 -43 -103 -43t-103 43t-43 104.5z" />
<glyph unicode="&#xc0;" horiz-adv-x="1275" d="M-59 0l587 1475h220l587 -1475h-250l-141 367h-612l-142 -367h-249zM371 1872l180 119l237 -332l-141 -92zM403 555h469l-192 518q-39 96 -41 195q-6 -98 -41 -195z" />
<glyph unicode="&#xc1;" horiz-adv-x="1275" d="M-59 0l587 1475h220l587 -1475h-250l-141 367h-612l-142 -367h-249zM403 555h469l-192 518q-39 96 -41 195q-6 -98 -41 -195zM498 1661l237 336l178 -119l-280 -307z" />
<glyph unicode="&#xc2;" horiz-adv-x="1275" d="M-59 0l587 1475h220l587 -1475h-250l-141 367h-612l-142 -367h-249zM274 1710l365 242l362 -242l-86 -143l-276 170l-283 -160zM403 555h469l-192 518q-39 96 -41 195q-6 -98 -41 -195z" />
<glyph unicode="&#xc3;" horiz-adv-x="1275" d="M-59 0l587 1475h220l587 -1475h-250l-141 367h-612l-142 -367h-249zM322 1587v166q4 2 13 5t13 5q98 31 221 4l11 -2l73 -18q6 -2 17.5 -4t17.5 -2q164 -31 266 33v-170q-4 -2 -12 -4.5t-12 -4.5q-117 -39 -287 -2l-63 15l-27 6q-6 0 -17.5 2t-17.5 4q-86 8 -164 -18 q-20 -7 -32 -15zM403 555h469l-192 518q-39 96 -41 195q-6 -98 -41 -195z" />
<glyph unicode="&#xc4;" horiz-adv-x="1275" d="M-59 0l587 1475h220l587 -1475h-250l-141 367h-612l-142 -367h-249zM262 1602q0 55 41 94t100 39q57 0 99 -41q39 -37 38 -91.5t-40 -91.5q-43 -39 -99 -38q-57 0 -97 38t-42 91zM403 555h469l-192 518q-39 96 -41 195q-6 -98 -41 -195zM737 1602q-2 53 38 92t97 41 q57 0 101 -39q39 -37 39 -91.5t-39 -93.5q-43 -39 -99 -38q-57 0 -97 38t-40 91z" />
<glyph unicode="&#xc5;" horiz-adv-x="1273" d="M-59 0l583 1434h39q-59 23 -96 71q-41 55 -34 126t59 120q61 59 146 59t146 -59q51 -49 59.5 -118.5t-32.5 -127.5q-33 -49 -92 -71h35l579 -1434h-243l-146 369h-614l-148 -369h-241zM399 557h475l-196 516q-39 98 -41 195q-6 -102 -41 -195zM545 1614q0 -37 26 -68 q27 -27 66 -26.5t67.5 27t28.5 67.5t-28.5 67.5t-65.5 26.5t-66 -27q-28 -28 -28 -67z" />
<glyph unicode="&#xc6;" horiz-adv-x="1794" d="M-59 0l886 1475h883v-205h-553v-377l477 2l-2 -199h-475v-489h578v-207h-813v383h-490l-229 -383h-262zM537 571h385v680z" />
<glyph unicode="&#xc7;" horiz-adv-x="1333" d="M61.5 661.5q-18.5 178.5 55.5 362.5q94 250 324.5 380t512.5 87q197 -33 349 -150l-123 -182q-199 160 -449 109q-166 -33 -279.5 -151t-142.5 -286q-39 -240 89 -421t354 -217q240 -39 428 116l120 -182q-203 -152 -460 -158q-72 -4 -144 6q-174 25 -316 123.5 t-221 241.5t-97.5 321.5zM543 -342l164 285l161 -60l-186 -274z" />
<glyph unicode="&#xc8;" horiz-adv-x="978" d="M106 0v1475h789v-197h-553v-385h475v-197h-475v-499h578v-197h-814zM223 1872l180 119l238 -332l-141 -92z" />
<glyph unicode="&#xc9;" horiz-adv-x="978" d="M106 0v1475h789v-197h-553v-385h475v-197h-475v-499h578v-197h-814zM350 1661l238 336l178 -119l-281 -307z" />
<glyph unicode="&#xca;" horiz-adv-x="978" d="M106 0v1475h789v-197h-553v-385h475v-197h-475v-499h578v-197h-814zM127 1710l365 242l362 -242l-86 -143l-276 170l-283 -160z" />
<glyph unicode="&#xcb;" horiz-adv-x="978" d="M106 0v1475h789v-197h-553v-385h475v-197h-475v-499h578v-197h-814zM133 1708q0 57 41 98q39 39 96.5 38t96.5 -40t39 -96t-39 -96q-39 -41 -96.5 -42t-98.5 40q-39 43 -39 98zM573 1708q4 59 41 96q39 39 96.5 40t96.5 -38q41 -39 42 -97t-40 -99q-39 -41 -97.5 -40 t-97.5 42q-41 37 -41 96z" />
<glyph unicode="&#xcc;" horiz-adv-x="448" d="M-43 1872l180 119l238 -332l-142 -92zM106 0v1475h236v-1475h-236z" />
<glyph unicode="&#xcd;" horiz-adv-x="448" d="M84 1661l238 336l178 -119l-281 -307zM106 0v1475h236v-1475h-236z" />
<glyph unicode="&#xce;" horiz-adv-x="448" d="M-139 1710l364 242l363 -242l-86 -143l-277 170l-282 -160zM106 0v1475h236v-1475h-236z" />
<glyph unicode="&#xcf;" horiz-adv-x="448" d="M-133 1708q0 57 41 98q39 39 96 38t96 -40t39 -96t-39 -96q-39 -41 -96 -42t-98 40q-39 43 -39 98zM106 0v1475h236v-1475h-236zM307 1708q4 59 41 96q39 39 96.5 40t96.5 -38q41 -39 42 -97t-40 -99q-39 -41 -97.5 -40t-97.5 42q-41 37 -41 96z" />
<glyph unicode="&#xd1;" horiz-adv-x="1523" d="M106 0v1475h216l790 -990q41 -51 88 -155q2 -6 7 -18.5t7 -18.5l-6 37l-12 65q-14 84 -14 125v955h235v-1475h-209l-800 997q-29 37 -58 90q-20 39 -43 95l10 -52l9 -49q16 -102 16 -114v-967h-236zM446 1587v166q4 2 13.5 5t13.5 5q98 31 221 4l11 -2l73 -18 q6 -2 17.5 -4t17.5 -2q164 -31 266 33v-170q-4 -2 -12 -4.5t-12 -4.5q-117 -39 -287 -2l-63 15l-27 6q-6 0 -17.5 2t-17.5 4q-86 8 -164 -18q-21 -7 -33 -15z" />
<glyph unicode="&#xd2;" horiz-adv-x="1665" d="M61 735.5q0 241.5 126 433t338 279.5t456 45q233 -41 398 -206t210 -398q61 -326 -116 -589t-492 -320q-244 -43 -456 45t-338 278.5t-126 432zM297 735q0 -172 92 -309t237.5 -197.5t307.5 -31.5q215 43 342 229q57 88 80 197q43 236 -80 424q-94 139 -239.5 199.5 t-307.5 29.5q-209 -39 -340 -229q-92 -140 -92 -312zM565 1872l180 119l238 -332l-141 -92z" />
<glyph unicode="&#xd3;" horiz-adv-x="1665" d="M61 735.5q0 241.5 126 433t338 279.5t456 45q233 -41 398 -206t210 -398q61 -326 -116 -589t-492 -320q-244 -43 -456 45t-338 278.5t-126 432zM297 735q0 -172 92 -309t237.5 -197.5t307.5 -31.5q215 43 342 229q57 88 80 197q43 236 -80 424q-94 139 -239.5 199.5 t-307.5 29.5q-209 -39 -340 -229q-92 -140 -92 -312zM692 1661l238 336l178 -119l-281 -307z" />
<glyph unicode="&#xd4;" horiz-adv-x="1665" d="M61 735.5q0 241.5 126 433t338 279.5t456 45q233 -41 398 -206t210 -398q61 -326 -116 -589t-492 -320q-244 -43 -456 45t-338 278.5t-126 432zM297 735q0 -172 92 -309t237.5 -197.5t307.5 -31.5q215 43 342 229q57 88 80 197q43 236 -80 424q-94 139 -239.5 199.5 t-307.5 29.5q-209 -39 -340 -229q-92 -140 -92 -312zM469 1710l365 242l362 -242l-86 -143l-276 170l-283 -160z" />
<glyph unicode="&#xd5;" horiz-adv-x="1665" d="M61 735.5q0 241.5 126 433t338 279.5t456 45q233 -41 398 -206t210 -398q61 -326 -116 -589t-492 -320q-244 -43 -456 45t-338 278.5t-126 432zM297 735q0 -172 92 -309t237.5 -197.5t307.5 -31.5q215 43 342 229q57 88 80 197q43 236 -80 424q-94 139 -239.5 199.5 t-307.5 29.5q-209 -39 -340 -229q-92 -140 -92 -312zM516 1587v166q4 2 13.5 5t13.5 5q98 31 221 4l10 -2l74 -18q6 -2 17.5 -4t17.5 -2q164 -31 266 33v-170q-4 -2 -12.5 -4.5t-12.5 -4.5q-117 -39 -286 -2l-64 15l-26 6q-6 0 -17.5 2t-17.5 4q-86 8 -164 -18 q-21 -7 -33 -15z" />
<glyph unicode="&#xd6;" horiz-adv-x="1665" d="M61 735.5q0 241.5 126 433t338 279.5t456 45q233 -41 398 -206t210 -398q61 -326 -116 -589t-492 -320q-244 -43 -456 45t-338 278.5t-126 432zM215 1554q0 55 41 95.5t102 40.5q55 0 101 -41q41 -39 40 -94.5t-42 -94.5q-43 -39 -101 -39q-59 2 -99 41t-42 92zM297 735 q0 -172 92 -309t237.5 -197.5t307.5 -31.5q215 43 342 229q57 88 80 197q43 236 -80 424q-94 139 -239.5 199.5t-307.5 29.5q-209 -39 -340 -229q-92 -140 -92 -312zM1155 1552q-2 53 39 94.5t102 43.5q63 0 109 -41q43 -37 43 -93.5t-43 -93.5q-45 -41 -107 -41 q-61 2 -102 41t-41 90z" />
<glyph unicode="&#xd8;" horiz-adv-x="1677" d="M61 29l193 190q-137 152 -178 363q-63 330 114 593t496 322q186 33 362.5 -17t309.5 -173l188 186l70 -72l-186 -184q123 -154 159 -346q61 -328 -116 -591t-494 -323q-184 -33 -353 13.5t-298 163.5l-193 -193zM315 623q25 -133 107 -236l772 756q-109 96 -250 121 q-168 31 -308 -27.5t-239 -198.5q-125 -175 -82 -415zM494 315q182 -170 440 -118q211 39 342 229q123 188 80 424q-20 117 -94 219z" />
<glyph unicode="&#xd9;" horiz-adv-x="1318" d="M106 575v900h236v-875q0 -205 58.5 -295t197.5 -112q61 -12 123 0q139 23 197.5 112.5t58.5 294.5v875h235v-900q0 -326 -176 -487.5t-485 -112.5q-227 37 -336 182.5t-109 417.5zM393 1872l180 119l238 -332l-141 -92z" />
<glyph unicode="&#xda;" horiz-adv-x="1318" d="M106 575v900h236v-875q0 -205 58.5 -295t197.5 -112q61 -12 123 0q139 23 197.5 112.5t58.5 294.5v875h235v-900q0 -326 -176 -487.5t-485 -112.5q-227 37 -336 182.5t-109 417.5zM520 1661l238 336l178 -119l-281 -307z" />
<glyph unicode="&#xdb;" horiz-adv-x="1318" d="M106 575v900h236v-875q0 -205 58.5 -295t197.5 -112q61 -12 123 0q139 23 197.5 112.5t58.5 294.5v875h235v-900q0 -326 -176 -487.5t-485 -112.5q-227 37 -336 182.5t-109 417.5zM297 1710l365 242l362 -242l-86 -143l-276 170l-283 -160z" />
<glyph unicode="&#xdc;" horiz-adv-x="1318" d="M106 575v900h236v-875q0 -205 58.5 -295t197.5 -112q61 -12 123 0q139 23 197.5 112.5t58.5 294.5v875h235v-900q0 -326 -176 -487.5t-485 -112.5q-227 37 -336 182.5t-109 417.5zM311 1597q0 53 41 93.5t98.5 40.5t98.5 -41q39 -39 39 -92.5t-41 -90.5q-39 -39 -98 -39 q-57 2 -96.5 39t-41.5 90zM731 1597q0 53 40 92.5t97 41.5q55 0 99 -39q39 -39 40 -92.5t-38 -92.5q-43 -39 -97 -39q-59 -2 -99 36t-42 93z" />
<glyph unicode="&#xdd;" horiz-adv-x="1015" d="M373 1706l237 336l178 -119l-280 -307zM-66 1475h271l258 -498q29 -53 41 -123q2 -8 4 -22.5t2 -16.5q4 43 14 82q12 43 31 82l258 496h268l-456 -824v-651h-234v651z" />
<glyph unicode="&#xdf;" horiz-adv-x="1136" d="M109 0v1061q0 176 86 287q104 129 284 149q219 29 365.5 -104t124.5 -332q-10 -100 -68 -172q-51 -59 -123 -88q119 -18 207 -111q78 -84 96.5 -206t-34.5 -253q-55 -135 -175 -204.5t-286 -57.5q-59 6 -121 27l-21 10l-20 8l45 205l12 -8l15 -6q4 -2 13 -6t13 -6 q68 -25 137 -9q84 18 135.5 83t53.5 159q4 113 -69.5 182.5t-198.5 69.5h-123v203h69q199 0 224 184q14 111 -59 182.5t-181 52.5q-172 -29 -176 -237v-1063h-225z" />
<glyph unicode="&#xe0;" horiz-adv-x="1202" d="M68 582q20 152 112 268q92 115 229.5 154.5t264.5 -3.5t194 -153v147h228v-995h-228v137q-59 -96 -168.5 -140t-244.5 -22q-147 27 -248 132.5t-133 271.5q-20 101 -6 203zM289 481q4 -45 8 -65q37 -174 182 -232q129 -53 254 21q119 70 144 235q14 102 -19 189.5 t-102 138.5q-125 90 -264.5 42t-184.5 -200q-18 -61 -18 -129zM334 1391l180 118l238 -331l-142 -93z" />
<glyph unicode="&#xe1;" horiz-adv-x="1202" d="M68 582q20 152 112 268q92 115 229.5 154.5t264.5 -3.5t194 -153v147h228v-995h-228v137q-59 -96 -168.5 -140t-244.5 -22q-147 27 -248 132.5t-133 271.5q-20 101 -6 203zM289 481q4 -45 8 -65q37 -174 182 -232q129 -53 254 21q119 70 144 235q14 102 -19 189.5 t-102 138.5q-125 90 -264.5 42t-184.5 -200q-18 -61 -18 -129zM461 1180l237 336l179 -119l-281 -307z" />
<glyph unicode="&#xe2;" horiz-adv-x="1202" d="M68 582q20 152 112 268q92 115 229.5 154.5t264.5 -3.5t194 -153v147h228v-995h-228v137q-59 -96 -168.5 -140t-244.5 -22q-147 27 -248 132.5t-133 271.5q-20 101 -6 203zM238 1229l364 241l363 -241l-86 -144l-277 170l-283 -159zM289 481q4 -45 8 -65 q37 -174 182 -232q129 -53 254 21q119 70 144 235q14 102 -19 189.5t-102 138.5q-125 90 -264.5 42t-184.5 -200q-18 -61 -18 -129z" />
<glyph unicode="&#xe3;" horiz-adv-x="1202" d="M68 582q20 152 112 268q92 115 229.5 154.5t264.5 -3.5t194 -153v147h228v-995h-228v137q-59 -96 -168.5 -140t-244.5 -22q-147 27 -248 132.5t-133 271.5q-20 101 -6 203zM285 1106v166q4 2 13 5t13 5q98 31 221 4l11 -2l73 -18q6 0 17.5 -2t17.5 -4q164 -31 267 32 v-170q-4 0 -12.5 -3t-12.5 -5q-117 -39 -287 -2l-63 14l-27 7q-6 2 -17.5 4t-17.5 2q-86 8 -164 -19q-20 -6 -32 -14zM289 481q4 -45 8 -65q37 -174 182 -232q129 -53 254 21q119 70 144 235q14 102 -19 189.5t-102 138.5q-125 90 -264.5 42t-184.5 -200q-18 -61 -18 -129z " />
<glyph unicode="&#xe4;" horiz-adv-x="1202" d="M74 379q-27 129 2.5 254t103.5 219q92 115 229.5 155t264.5 -2t194 -153v143h228v-995h-228v137q-59 -96 -168.5 -140t-244.5 -22q-147 27 -247.5 131.5t-133.5 272.5zM248 1278q0 57 41 98q39 41 96 41t96 -41t39 -98t-39 -96q-41 -41 -97 -41t-97 41q-39 39 -39 96z M289 483q4 -109 55 -187.5t135 -111.5q129 -53 254 21q119 70 144 235q31 221 -121 330q-125 90 -264.5 42t-184.5 -200q-18 -61 -18 -129zM692 1280q0 55 41 96t96.5 41t96.5 -41q41 -39 42 -97t-40 -97q-39 -41 -96.5 -41t-98.5 41q-41 37 -41 98z" />
<glyph unicode="&#xe5;" horiz-adv-x="1200" d="M72 381q-35 190 33.5 350t206 240t294.5 53q182 -33 258 -168v137h230v-993h-228v135q-53 -92 -164.5 -138t-246.5 -22q-147 25 -248.5 130.5t-134.5 275.5zM289 485q10 -229 190 -303q133 -51 254 21q147 88 148 299q4 180 -125 272q-125 90 -264.5 42t-184.5 -200 q-18 -59 -18 -131zM377 1280q0 80 59.5 137.5t145.5 57.5q88 0 147 -60q57 -55 57 -136t-57 -138q-61 -57 -147 -57.5t-146.5 58t-58.5 138.5zM489 1280q-2 -39 27 -67.5t67 -28.5t66 28q27 29 27 68t-26.5 65.5t-65.5 26.5t-68 -26q-27 -27 -27 -66z" />
<glyph unicode="&#xe6;" horiz-adv-x="1812" d="M74 219q-43 160 50 283t296 151q82 10 143 2q129 -10 211 -75q0 6 -2 16t-2 14q-23 152 -150.5 211.5t-345.5 -8.5q-18 -6 -51 -18l-69 157q49 20 73 29q178 59 318.5 43t228.5 -81.5t111 -160.5q27 123 169 192.5t324 31.5q168 -35 270.5 -166t110.5 -334q0 -51 -6 -103 h-776q2 -4 4 -15t2 -17q31 -121 129 -179.5t225 -25.5q96 23 158 100q29 39 41 70l199 -78q-14 -29 -33 -59q-115 -174 -303 -215q-180 -41 -322.5 11t-206.5 169q-49 -94 -168.5 -150.5t-273.5 -48.5q-135 8 -230 80t-124 174zM270 305q6 -94 107.5 -142t243.5 1 q70 25 106 78q63 92 40.5 155.5t-118.5 89.5q-6 0 -18 3l-21 6q-164 25 -256 -35t-84 -156zM979 571h547q0 23 -2 35q-14 125 -102.5 191.5t-217.5 44.5q-88 -16 -145.5 -72.5t-73.5 -144.5q-6 -29 -6 -54z" />
<glyph unicode="&#xe7;" horiz-adv-x="919" d="M70 586q37 217 210 339t408 91q111 -12 211 -66l-72 -192q-29 16 -43 22q-176 72 -317 2.5t-168 -231.5q-29 -174 84 -286.5t287 -86.5q53 6 106 33q23 10 49 27l78 -177q-100 -68 -223 -86q-186 -29 -340 46t-228.5 227t-41.5 338zM346 -338l164 285l162 -60l-187 -276z " />
<glyph unicode="&#xe8;" horiz-adv-x="1136" d="M68 571q23 170 129 288t262 151q254 53 430 -87.5t190 -412.5q2 -35 -2 -96h-784l6 -37q23 -92 83 -150.5t148 -72.5q31 -6 60 -4q125 4 225 106q31 29 57 74l181 -115l-15 -18l-16 -21q-158 -203 -426 -209q-260 -4 -412.5 169t-115.5 435zM293 580h549q0 10 -4 34 q-16 123 -110.5 186.5t-217.5 37.5q-29 -6 -53 -19q-119 -55 -156 -198q-4 -12 -8 -41zM301 1391l180 118l238 -331l-141 -93z" />
<glyph unicode="&#xe9;" horiz-adv-x="1136" d="M68 571q23 170 129 288t262 151q254 53 430 -87.5t190 -412.5q2 -35 -2 -96h-784l6 -37q23 -92 83 -150.5t148 -72.5q31 -6 60 -4q125 4 225 106q31 29 57 74l181 -115l-15 -18l-16 -21q-158 -203 -426 -209q-260 -4 -412.5 169t-115.5 435zM293 580h549q0 10 -4 34 q-16 123 -110.5 186.5t-217.5 37.5q-29 -6 -53 -19q-119 -55 -156 -198q-4 -12 -8 -41zM428 1180l238 336l178 -119l-281 -307z" />
<glyph unicode="&#xea;" horiz-adv-x="1136" d="M68 571q23 170 129 288t262 151q254 53 430 -87.5t190 -412.5q2 -35 -2 -96h-784l6 -37q23 -92 83 -150.5t148 -72.5q31 -6 60 -4q125 4 225 106q31 29 57 74l181 -115l-15 -18l-16 -21q-158 -203 -426 -209q-260 -4 -412.5 169t-115.5 435zM205 1229l364 241l363 -241 l-86 -144l-277 170l-282 -159zM293 580h549q0 10 -4 34q-16 123 -110.5 186.5t-217.5 37.5q-29 -6 -53 -19q-119 -55 -156 -198q-4 -12 -8 -41z" />
<glyph unicode="&#xeb;" horiz-adv-x="1136" d="M68 571q23 170 129 288t262 151q254 53 430 -87.5t190 -412.5q2 -35 -2 -96h-784l6 -37q23 -92 83 -150.5t148 -72.5q31 -6 60 -4q125 4 225 106q31 29 57 74l181 -115l-15 -18l-16 -21q-158 -203 -426 -209q-260 -4 -412.5 169t-115.5 435zM211 1227q0 57 41 98 q39 39 96.5 38t95.5 -40q39 -41 39 -96.5t-38.5 -96t-96 -42t-98.5 39.5q-39 44 -39 99zM293 580h549q0 10 -4 34q-16 123 -110.5 186.5t-217.5 37.5q-29 -6 -53 -19q-119 -55 -156 -198q-4 -12 -8 -41zM651 1227q4 59 41 96q39 39 96.5 40t96.5 -38q41 -39 42 -97.5 t-40 -99.5q-39 -41 -97.5 -39.5t-97.5 41.5q-41 38 -41 97z" />
<glyph unicode="&#xec;" horiz-adv-x="378" d="M-78 1391l180 118l238 -331l-141 -93zM80 0v995h227v-995h-227z" />
<glyph unicode="&#xed;" horiz-adv-x="378" d="M49 1180l238 336l178 -119l-281 -307zM80 0v995h227v-995h-227z" />
<glyph unicode="&#xee;" horiz-adv-x="378" d="M-174 1229l364 241l363 -241l-86 -144l-277 170l-282 -159zM80 0v995h227v-995h-227z" />
<glyph unicode="&#xef;" horiz-adv-x="378" d="M-168 1227q0 57 41 98q39 39 96.5 38t96.5 -40q41 -41 40.5 -96.5t-40.5 -96.5q-39 -41 -96.5 -42t-98.5 40q-39 44 -39 99zM80 0v995h227v-995h-227zM272 1227q4 59 41 96q39 39 96.5 40t96.5 -38q41 -39 42 -97.5t-40 -99.5q-39 -41 -97.5 -39.5t-97.5 41.5 q-41 38 -41 97z" />
<glyph unicode="&#xf1;" horiz-adv-x="1095" d="M106 0v995h228v-153q12 18 14 20q84 129 238 156q188 31 295.5 -73.5t107.5 -315.5v-629h-229v573q0 141 -67.5 208t-182.5 40q-176 -43 -176 -278v-543h-228zM231 1106v166q4 2 13.5 5t13.5 5q98 31 221 4l10 -2l74 -18q6 0 17.5 -2t17.5 -4q164 -31 266 32v-170 q-4 0 -12 -3t-12 -5q-117 -39 -287 -2l-64 14l-26 7q-6 2 -17.5 4t-17.5 2q-86 8 -164 -19q-21 -6 -33 -14z" />
<glyph unicode="&#xf2;" horiz-adv-x="1200" d="M61 496q0 225 153 375.5t386 150.5q268 0 424 -190.5t102 -454.5q-41 -203 -216 -318.5t-402 -83.5q-201 31 -324 174.5t-123 346.5zM285 496q-2 -123 69.5 -212t188.5 -112q57 -10 114 0q133 27 206 136.5t48 254.5q-16 98 -84.5 168t-169.5 88q-59 10 -114 0 q-117 -23 -187.5 -110.5t-70.5 -212.5zM334 1391l180 118l238 -331l-142 -93z" />
<glyph unicode="&#xf3;" horiz-adv-x="1200" d="M61 496q0 225 153 375.5t386 150.5q268 0 424 -190.5t102 -454.5q-41 -203 -216 -318.5t-402 -83.5q-201 31 -324 174.5t-123 346.5zM285 496q-2 -123 69.5 -212t188.5 -112q57 -10 114 0q133 27 206 136.5t48 254.5q-16 98 -84.5 168t-169.5 88q-59 10 -114 0 q-117 -23 -187.5 -110.5t-70.5 -212.5zM461 1180l237 336l179 -119l-281 -307z" />
<glyph unicode="&#xf4;" horiz-adv-x="1200" d="M61 496q0 225 153 375.5t386 150.5q268 0 424 -190.5t102 -454.5q-41 -203 -216 -318.5t-402 -83.5q-201 31 -324 174.5t-123 346.5zM238 1229l364 241l363 -241l-86 -144l-277 170l-283 -159zM285 496q-2 -123 69.5 -212t188.5 -112q57 -10 114 0q133 27 206 136.5 t48 254.5q-16 98 -84.5 168t-169.5 88q-59 10 -114 0q-117 -23 -187.5 -110.5t-70.5 -212.5z" />
<glyph unicode="&#xf5;" horiz-adv-x="1200" d="M61 496q0 225 153 375.5t386 150.5q268 0 424 -190.5t102 -454.5q-41 -203 -216 -318.5t-402 -83.5q-201 31 -324 174.5t-123 346.5zM285 496q-2 -123 69.5 -212t188.5 -112q57 -10 114 0q133 27 206 136.5t48 254.5q-16 98 -84.5 168t-169.5 88q-59 10 -114 0 q-117 -23 -187.5 -110.5t-70.5 -212.5zM285 1106v166q4 2 13 5t13 5q98 31 221 4l11 -2l73 -18q6 0 17.5 -2t17.5 -4q164 -31 267 32v-170q-4 0 -12.5 -3t-12.5 -5q-117 -39 -287 -2l-63 14l-27 7q-6 2 -17.5 4t-17.5 2q-86 8 -164 -19q-20 -6 -32 -14z" />
<glyph unicode="&#xf6;" horiz-adv-x="1200" d="M61 496q0 227 153 376.5t386 149.5q268 0 424 -190.5t102 -454.5q-41 -203 -216 -318.5t-402 -83.5q-201 31 -324 174.5t-123 346.5zM252 1276q0 59 41 100t98.5 39t97 -42t37.5 -97q0 -57 -40 -96t-97 -39t-96 40t-41 95zM285 496q0 -125 70.5 -213t187.5 -111 q57 -10 114 0q117 23 187.5 111t70.5 213t-70.5 213t-187.5 110q-59 10 -114 0q-117 -23 -188.5 -110.5t-69.5 -212.5zM674 1276q-4 55 39 98q39 41 96 41t98 -39q39 -41 39 -98t-39 -98q-39 -39 -96 -39t-96 39q-41 41 -41 96z" />
<glyph unicode="&#xf8;" horiz-adv-x="1208" d="M61 25l127 129q-170 180 -114 462q41 203 217 320t401 82q150 -23 266 -115l129 117l60 -70l-121 -114q76 -100 100 -222q53 -264 -102.5 -454.5t-423.5 -190.5q-195 -4 -346 117l-123 -123zM293 436q12 -76 53 -133l461 449q-37 31 -84 51q-86 35 -176 16 q-135 -25 -204.5 -129t-49.5 -254zM408 236q63 -53 145 -65.5t162 17.5q131 51 179 179.5t-11 289.5q-2 4 -6.5 13.5t-6.5 13.5z" />
<glyph unicode="&#xf9;" horiz-adv-x="1103" d="M106 410v585h228v-563q0 -248 219 -248q217 0 217 248v563h227v-585q0 -379 -368 -435q-76 -8 -154 0q-369 56 -369 435zM285 1391l180 118l237 -331l-141 -93z" />
<glyph unicode="&#xfa;" horiz-adv-x="1103" d="M106 410v585h228v-563q0 -248 219 -248q217 0 217 248v563h227v-585q0 -379 -368 -435q-76 -8 -154 0q-369 56 -369 435zM412 1180l237 336l178 -119l-280 -307z" />
<glyph unicode="&#xfb;" horiz-adv-x="1103" d="M106 410v585h228v-563q0 -248 219 -248q217 0 217 248v563h227v-585q0 -379 -368 -435q-76 -8 -154 0q-369 56 -369 435zM188 1229l365 241l362 -241l-86 -144l-276 170l-283 -159z" />
<glyph unicode="&#xfc;" horiz-adv-x="1103" d="M106 410v585h228v-563q0 -248 219 -248q217 0 217 248v563h227v-585q0 -379 -368 -435q-76 -8 -154 0q-369 56 -369 435zM199 1276q0 57 39 100q41 41 98 41t96 -41t39 -97t-41 -97q-41 -39 -96 -39t-94 39q-41 37 -41 94zM633 1278q0 55 39 98q41 41 98 41t96 -41 q41 -41 40 -98t-42 -96q-39 -39 -95 -39t-95 39q-41 37 -41 96z" />
<glyph unicode="&#xfd;" horiz-adv-x="894" d="M318 1235l237 336l178 -119l-280 -307zM-59 995h245l220 -569q33 -86 43 -180q12 84 47 180l219 569h250l-443 -1069q-4 -8 -11 -23.5t-9 -23.5q-86 -190 -196 -254q-64 -37 -151 -37q-62 0 -137 19q-6 2 -17 5t-15 5l45 199q4 0 11 -2t11 -4q42 -12 77 -13q41 0 71 18 q55 32 100 138l21 51l10 25z" />
<glyph unicode="&#xff;" horiz-adv-x="894" d="M-59 995h245l220 -569q33 -86 43 -180q12 84 47 180l219 569h250l-443 -1069q-4 -8 -11 -23.5t-9 -23.5q-86 -190 -195.5 -253.5t-288.5 -18.5q-6 2 -17 5t-15 5l45 199q4 0 11 -2t11 -4q92 -27 147.5 4.5t100.5 138.5l21 51l10 25zM90 1227q0 57 41 98q39 39 96.5 38 t96.5 -40q41 -41 41 -96.5t-41 -96.5q-39 -41 -96.5 -42t-98.5 40q-39 44 -39 99zM530 1227q4 59 41 96q39 39 96.5 40t96.5 -38q41 -39 42 -97.5t-40 -99.5q-39 -41 -97.5 -39.5t-97.5 41.5q-41 38 -41 97z" />
<glyph unicode="&#x152;" horiz-adv-x="2187" d="M78 877q43 231 201.5 396t382.5 212q205 43 384 -11.5t271 -166.5v168h786v-205h-551v-377h476v-197h-476v-489h576v-207h-811v172q-86 -113 -248 -167t-364 -25q-317 47 -501.5 308t-125.5 589zM305 725q4 -66 17 -113q39 -170 155.5 -277.5t282.5 -129.5 q238 -35 390.5 78.5t170.5 320.5q27 317 -63.5 470t-321.5 194q-223 39 -401.5 -86t-219.5 -348q-10 -43 -10 -109z" />
<glyph unicode="&#x153;" horiz-adv-x="1976" d="M72 596q31 160 143.5 272.5t271.5 141.5q180 33 323.5 -26.5t215.5 -190.5q57 131 196.5 191t315.5 22q168 -37 269.5 -163t115.5 -319q4 -63 -6 -125h-774q0 -4 2 -13t4 -13q49 -184 233 -213q94 -12 173 23.5t126 109.5q8 14 21 43l196 -78q-14 -37 -40 -72 q-154 -219 -428 -219q-125 0 -224.5 45t-152.5 121q-25 41 -33 64q-25 -43 -59 -84q-168 -184 -469 -133q-221 39 -343 214t-77 402zM285 498q0 -23 4 -64q16 -102 81.5 -169.5t166.5 -86.5q143 -27 249.5 48t128.5 214q25 160 -66 267.5t-247 107.5q-123 -2 -206 -69.5 t-105 -184.5q-6 -32 -6 -63zM1149 567h537q0 18 -5 51q-20 119 -106 178.5t-207 37.5q-80 -16 -136 -70.5t-75 -140.5q-4 -19 -8 -56z" />
<glyph unicode="&#x178;" horiz-adv-x="1015" d="M-66 1475h271l258 -498q29 -53 41 -123q2 -8 4 -22.5t2 -16.5q4 43 14 82q12 43 31 82l258 496h268l-456 -824v-651h-234v651zM152 1708q0 57 41 98q39 39 96 38t96 -40q41 -39 41 -96t-41 -96q-39 -41 -96.5 -42t-98.5 40q-38 43 -38 98zM592 1708q4 59 41 96 q39 39 96 40t96 -38q41 -39 42 -97t-40 -99q-39 -41 -97 -40t-97 42q-41 37 -41 96z" />
<glyph unicode="&#x2c6;" horiz-adv-x="731" d="M2 1229l365 241l362 -241l-86 -144l-276 170l-283 -159z" />
<glyph unicode="&#x2dc;" horiz-adv-x="636" d="M2 1106v166q4 2 13.5 5t13.5 5q98 31 221 4l10 -2l74 -18q6 0 17 -2t18 -4q164 -31 266 32v-170q-4 0 -12.5 -3t-12.5 -5q-117 -39 -286 -2l-64 14l-27 7q-6 2 -17 4t-17 2q-86 8 -164 -19q-21 -6 -33 -14z" />
<glyph unicode="&#x2000;" horiz-adv-x="1019" />
<glyph unicode="&#x2001;" horiz-adv-x="2041" />
<glyph unicode="&#x2002;" horiz-adv-x="1019" />
<glyph unicode="&#x2003;" horiz-adv-x="2041" />
<glyph unicode="&#x2004;" horiz-adv-x="679" />
<glyph unicode="&#x2005;" horiz-adv-x="509" />
<glyph unicode="&#x2006;" horiz-adv-x="339" />
<glyph unicode="&#x2007;" horiz-adv-x="339" />
<glyph unicode="&#x2008;" horiz-adv-x="253" />
<glyph unicode="&#x2009;" horiz-adv-x="407" />
<glyph unicode="&#x200a;" horiz-adv-x="112" />
<glyph unicode="&#x2010;" horiz-adv-x="630" d="M68 387v221h495v-221h-495z" />
<glyph unicode="&#x2011;" horiz-adv-x="630" d="M68 387v221h495v-221h-495z" />
<glyph unicode="&#x2012;" horiz-adv-x="630" d="M68 387v221h495v-221h-495z" />
<glyph unicode="&#x2013;" horiz-adv-x="1212" d="M117 637v194h979v-194h-979z" />
<glyph unicode="&#x2014;" horiz-adv-x="946" d="M53 389v227h840v-227h-840z" />
<glyph unicode="&#x2018;" horiz-adv-x="421" d="M14 958l193 553l162 -34l-115 -570z" />
<glyph unicode="&#x2019;" horiz-adv-x="421" d="M14 948l111 570l244 -52l-193 -551z" />
<glyph unicode="&#x201a;" horiz-adv-x="419" d="M14 -274l113 567l240 -49l-191 -553z" />
<glyph unicode="&#x201c;" horiz-adv-x="780" d="M14 958l193 553l162 -34l-115 -570zM373 958l192 553l162 -34l-113 -570z" />
<glyph unicode="&#x201d;" horiz-adv-x="780" d="M14 956l111 570l244 -51l-193 -551zM373 956l112 570l242 -51l-192 -551z" />
<glyph unicode="&#x201e;" horiz-adv-x="780" d="M14 -274l113 567l240 -49l-191 -553zM373 -274l112 567l242 -49l-190 -553z" />
<glyph unicode="&#x2022;" horiz-adv-x="745" d="M96 737.5q0 114.5 81 195.5t195.5 81t195.5 -81t81 -195.5t-81 -195.5t-195.5 -81t-195.5 81t-81 195.5z" />
<glyph unicode="&#x2026;" horiz-adv-x="1269" d="M82 108.5q0 53.5 38 91.5t91 38t91 -38t38 -91.5t-38 -91t-91 -37.5t-91 37.5t-38 91zM506 108.5q0 53.5 38 91.5t91 38t91 -38t38 -91.5t-38 -91t-91 -37.5t-91 37.5t-38 91zM930 108.5q0 53.5 38 91.5t91 38t91 -38t38 -91.5t-38 -91t-91 -37.5t-91 37.5t-38 91z" />
<glyph unicode="&#x202f;" horiz-adv-x="407" />
<glyph unicode="&#x2039;" horiz-adv-x="813" d="M68 500l550 487l127 -137l-405 -346l405 -357l-127 -143z" />
<glyph unicode="&#x203a;" horiz-adv-x="815" d="M68 147l407 353l-407 356l127 137l553 -499l-555 -488z" />
<glyph unicode="&#x2044;" horiz-adv-x="401" d="M-240 0l754 1507l127 -65l-754 -1505z" />
<glyph unicode="&#x205f;" horiz-adv-x="509" />
<glyph unicode="&#x2122;" horiz-adv-x="1492" d="M96 1372v103h445v-103h-166v-635h-115v635h-164zM516 737l141 756h62l205 -467q31 -72 32 -129q2 68 33 129l205 467h61l142 -756h-115l-74 430l-4 23l-2 18q-4 39 2 72l-20 -72l-10 -26l-3 -11l-194 -450h-41l-195 450l-4 15l-8 24q-14 35 -20 70q6 -33 2 -72l-2 -18 l-4 -23l-74 -430h-115z" />
<glyph unicode="&#xe000;" horiz-adv-x="995" d="M0 995h995v-995h-995v995z" />
<glyph unicode="&#xfb01;" d="M186 473l275 275l-275 274l138 135l272 -272l274 272l158 -158l-274 -272l274 -274l-135 -136l-275 273l-274 -275z" />
<glyph unicode="&#xfb02;" horiz-adv-x="808" d="M80 0v203h217v1067h-215v205h442v-1276l217 4v-203h-661z" />
<glyph unicode="&#xfb03;" horiz-adv-x="1511" d="M1149 1282q0 53 42 93t101.5 40t104.5 -41q43 -37 43 -93t-41 -95q-45 -41 -106.5 -41t-102.5 41t-41 96zM1180 0v995h229v-995h-229zM531 803v192h147v158q0 197 138 292q85 59 199 59q72 0 155 -23l37 -13l-41 -178q-4 2 -13.5 5t-13.5 5q-44 14 -81 15q-53 0 -89 -30 q-61 -50 -61 -169v-121h258v-192h-258v-803h-230v803h-147zM-4 803v192h147v158q0 197 138 292q85 59 199 59q72 0 155 -23l37 -13l-41 -178q-4 2 -13.5 5t-13.5 5q-44 14 -81 15q-53 0 -89 -30q-61 -50 -61 -169v-121h258v-192h-258v-803h-230v803h-147z" />
<glyph unicode="&#xfb04;" horiz-adv-x="1511" d="M1175 0v1475h230v-1475h-230zM531 803v192h147v158q0 197 138 292q85 59 199 59q72 0 155 -23l37 -13l-41 -178q-4 2 -13.5 5t-13.5 5q-44 14 -81 15q-53 0 -89 -30q-61 -50 -61 -169v-121h258v-192h-258v-803h-230v803h-147zM-4 803v192h147v158q0 197 138 292 q85 59 199 59q72 0 155 -23l37 -13l-41 -178q-4 2 -13.5 5t-13.5 5q-44 14 -81 15q-53 0 -89 -30q-61 -50 -61 -169v-121h258v-192h-258v-803h-230v803h-147z" />
</font>
</defs>
</svg>
