<?xml version="1.0" standalone="no"?>
<!DOCTYPE svg PUBLIC "-//W3C//DTD SVG 1.1//EN" "http://www.w3.org/Graphics/SVG/1.1/DTD/svg11.dtd" >
<svg xmlns="http://www.w3.org/2000/svg">
<metadata>
This is a custom SVG webfont generated by Font Squirrel.
Copyright   : 1991 B  P Graphics Ltd       
</metadata>
<defs>
<font id="MontrealRegular" horiz-adv-x="1173" >
<font-face units-per-em="2048" ascent="1638" descent="-410" />
<missing-glyph horiz-adv-x="593" />
<glyph unicode=" "  horiz-adv-x="593" />
<glyph unicode="&#x09;" horiz-adv-x="593" />
<glyph unicode="&#xa0;" horiz-adv-x="593" />
<glyph unicode="!" horiz-adv-x="479" d="M119 90q0 49 34.5 84t86.5 35q49 0 83.5 -35t35.5 -84t-33 -84q-33 -33 -86 -37q-49 0 -85 35t-36 86zM154 344v1131h170v-1131h-170z" />
<glyph unicode="&#x22;" horiz-adv-x="587" d="M102 1014l41 461h129l-41 -461h-129zM315 1014l41 461h129l-41 -461h-129z" />
<glyph unicode="#" horiz-adv-x="1196" d="M102 469l21 92h235l74 352h-235l18 93h238l90 436h92l-90 -436h221l90 436h92l-90 -436h236l-21 -93h-235l-74 -352h235l-20 -92h-236l-92 -436h-92l92 436h-221l-92 -436h-92l92 436h-236zM451 561h221l73 352h-221z" />
<glyph unicode="$" horiz-adv-x="1024" d="M-8 279l143 88l25 -43q94 -147 250 -185q10 -4 30 -8v565l-51 21q-229 106 -291.5 273t56.5 335q119 166 290 160v143h105v-141q150 12 287 -121q53 -51 92 -125l-152 -74q-23 53 -57 90q-84 86 -172 74v-483q10 -4 28.5 -11.5t28.5 -11.5q264 -115 336 -289t-59 -368 q-92 -139 -273 -184q-23 -6 -69 -11v-141h-109v139q-25 0 -53 6q-233 43 -359 252q-10 17 -26 50zM267 1092.5q7 -97.5 100 -164.5q25 -16 47 -29l14 -6l12 -4v436l-12 -6l-14 -8q-41 -18 -74 -49q-80 -72 -73 -169.5zM541 133q4 2 15 4t17 2q96 29 154 107q80 113 47 214 t-170 167l-47 22l-16 8v-524z" />
<glyph unicode="%" horiz-adv-x="1710" d="M72 1136.5q0 153.5 108.5 262t261.5 106.5q154 0 263 -108q109 -106 108.5 -260t-108.5 -263q-111 -106 -263 -106q-154 0 -262 107.5t-108 261zM225 1136.5q0 -92.5 64 -159.5q63 -63 153 -63.5t154 63.5q63 66 63 159t-63 160q-63 63 -153.5 63.5t-153.5 -63.5 q-64 -67 -64 -159.5zM369 35l825 1478l141 -81l-825 -1479zM897 338q-2 154 106.5 262.5t264.5 110.5q152 0 262 -111q109 -109 107.5 -261.5t-110 -261t-261.5 -108.5q-154 2 -261.5 109.5t-107.5 259.5zM1049 338q4 -94 65 -160q61 -63 151.5 -64t153.5 62q66 68 66 162 t-66 162q-61 66 -151 65.5t-154 -65.5q-65 -70 -65 -162z" />
<glyph unicode="&#x26;" horiz-adv-x="1306" d="M82 334q-59 299 274 522q6 4 19.5 12.5t19.5 12.5q-16 16 -22 26q-59 72 -94 144q-76 154 -9.5 285.5t230.5 156.5q66 12 129 0q162 -27 230.5 -154t-1.5 -262q-53 -98 -194 -203q-20 -16 -31 -22l350 -424l184 176l113 -119l-188 -178l200 -229l-123 -105l-202 232 q-12 -12 -41 -37q-184 -160 -338 -189.5t-299 58.5q-168 96 -207 297zM252 492.5q-41 -113.5 39 -228.5q180 -264 540 33q4 6 14.5 15.5t16.5 13.5l-358 428q-6 -4 -17.5 -11.5t-17.5 -11.5q-176 -125 -217 -238.5zM422 1265.5q-29 -71.5 22 -171.5q10 -16 33 -54 q12 -14 37 -47q2 -4 8 -11t10 -9q18 10 33 22q94 74 129 131q41 74 12.5 139.5t-106.5 82.5q-37 8 -63 2q-86 -13 -115 -84.5z" />
<glyph unicode="'" horiz-adv-x="374" d="M102 1014l41 461h129l-41 -461h-129z" />
<glyph unicode="(" horiz-adv-x="419" d="M74 737q0 260 71 545q55 213 144 408l129 -43q-80 -188 -119 -383q-66 -307 -66 -526.5t66 -526.5q39 -195 119 -383l-129 -43q-88 195 -144 408q-71 284 -71 544z" />
<glyph unicode=")" horiz-adv-x="421" d="M2 -166q82 197 127 424q55 287 55 480.5t-55 478.5q-45 227 -127 423l125 43q96 -205 149 -423q72 -291 72 -522.5t-72 -522.5q-53 -219 -149 -424z" />
<glyph unicode="*" horiz-adv-x="864" d="M59 1141l37 182l271 -104l-33 292h186l-37 -294l279 106l43 -184l-293 -31l178 -229l-162 -91l-104 250l-119 -243l-164 102l197 215z" />
<glyph unicode="+" horiz-adv-x="1171" d="M106 641v147h398v398h164v-398h397v-147h-397v-399h-164v399h-398z" />
<glyph unicode="," horiz-adv-x="385" d="M14 -268l121 522l191 -49l-183 -506z" />
<glyph unicode="-" horiz-adv-x="620" d="M74 414v164h473v-164h-473z" />
<glyph unicode="." horiz-adv-x="362" d="M59 94q0 51 36 86t87 35q49 0 84 -35t35 -86t-35 -86t-84 -35q-51 -2 -87 34t-36 87z" />
<glyph unicode="/" horiz-adv-x="483" d="M2 0l324 1507l155 -32l-323 -1508z" />
<glyph unicode="0" d="M61 735q0 365 152 563.5t375 198.5t373.5 -198.5t150.5 -563.5q0 -401 -181 -603t-431 -152q-193 37 -316 233t-123 522zM238 735q0 -334 137 -497q100 -117 242.5 -99.5t226.5 160.5q74 127 90 328q27 416 -135 604q-98 117 -240.5 99.5t-226.5 -161.5 q-94 -158 -94 -434z" />
<glyph unicode="1" d="M289 0v147h217v1180h-215v148h385v-1328h215v-147h-602z" />
<glyph unicode="2" d="M102 1049q0 201 134.5 327.5t353.5 124.5q201 -2 330 -109.5t151 -281.5q16 -135 -40 -254t-228 -285q-33 -33 -49 -47l-420 -377h766v-147h-994v154l527 479q29 27 115 112q162 180 149.5 342t-176.5 228q-178 72 -310 -14.5t-130 -256.5q0 -31 4 -47h-181q-2 19 -2 52z " />
<glyph unicode="3" d="M98 424h178q0 -20 3 -31q14 -141 118.5 -215t257.5 -43q88 18 150.5 77.5t83.5 141.5q12 59 4 113q-18 111 -103 173t-221 58q-6 0 -16 -1t-16 -3v160q16 -4 28 -4q104 -8 181 47t96 150q23 109 -35.5 193.5t-171.5 105.5q-53 10 -105 0q-190 -33 -217 -209 q0 -6 -1 -14.5t-1 -14.5h-174q0 12 4 45q29 160 144.5 253t296.5 95q133 2 235 -55q156 -90 193 -246q29 -119 -11.5 -222.5t-136.5 -166.5q-29 -16 -45 -23q57 -18 105 -51q92 -68 131 -176t12 -233q-39 -178 -207 -285q-104 -68 -256 -74q-211 -4 -345 106.5t-157 301.5 q0 6 -1 22.5t-1 24.5z" />
<glyph unicode="4" d="M59 344l789 1131h70v-1074h184v-147h-184v-254h-170v254h-629zM289 401h459v576q0 8 4 53q6 43 18 86q-20 -49 -43 -82l-6 -10l-25 -35z" />
<glyph unicode="5" d="M29 274l135 101q35 -94 114.5 -158.5t180.5 -81.5q76 -12 149 6q113 27 186.5 101.5t94.5 187.5q35 188 -88 315t-332 107q-86 -10 -156 -45l-65 47l184 621h637v-148h-516l-102 -340q8 2 22 5t23 5q270 41 445 -144t122 -456q-35 -154 -145 -268q-119 -121 -283 -147 q-211 -39 -377 51q-166 94 -229 241z" />
<glyph unicode="6" d="M126 234.5q-112 220.5 13 463.5q18 37 51 84l134 183l395 536l129 -94l-385 -510q23 8 72 21q86 16 165 4q207 -29 318.5 -194t66.5 -372q-43 -195 -208.5 -304t-376.5 -77q-262 39 -374 259.5zM242 436q6 -121 81.5 -205t198.5 -104q68 -10 133 2q184 39 248 201 q61 152 -10.5 283.5t-230.5 166.5q-154 33 -274 -49t-142 -229q-4 -46 -4 -66z" />
<glyph unicode="7" horiz-adv-x="1171" d="M84 51l805 1276h-776v148h974v-129l-856 -1373z" />
<glyph unicode="8" d="M119 475q20 104 84.5 179t156.5 106q-39 12 -69 35q-84 57 -121 156.5t-16 219.5q31 166 175 261.5t341 64.5q139 -23 233 -111t117 -215q20 -121 -16.5 -220t-120.5 -156q-31 -23 -70 -35q92 -31 156.5 -105.5t85.5 -179.5q45 -219 -122 -377.5t-427 -124.5 q-201 27 -312.5 175.5t-74.5 326.5zM297 393q0 -18 8 -59q25 -92 100.5 -148.5t180 -56.5t181.5 56.5t101 150.5q16 59 4 117q-16 90 -77.5 148t-155.5 75q-53 8 -104 0q-94 -16 -156 -74.5t-78 -148.5q-6 -33 -4 -60zM322 1083q6 -100 65 -164.5t158 -80.5q43 -6 82 0 q174 29 215 184q33 119 -25.5 210t-179.5 111q-51 6 -100 0q-104 -16 -161.5 -88t-53.5 -172z" />
<glyph unicode="9" horiz-adv-x="1175" d="M88 1116q39 172 176 279.5t326 109.5q135 0 247.5 -55t175 -145.5t84 -207t-25.5 -237.5q-25 -66 -62.5 -128t-138.5 -197l-417 -564l-129 97l391 514q-201 -92 -418 34q-127 74 -184.5 210t-24.5 290zM246 1022q0 -41 4 -61q18 -104 91 -176t183 -93q150 -27 265.5 55 t138.5 226q27 174 -96 288.5t-306 81.5q-106 -18 -178 -86.5t-94 -169.5q-8 -30 -8 -65z" />
<glyph unicode=":" horiz-adv-x="481" d="M119 94q0 51 35.5 86t85.5 35q51 0 85.5 -35t34.5 -86t-34.5 -86t-85.5 -35q-49 -2 -85 34t-36 87zM121 770q0 51 35 86q35 37 85 36t84.5 -36t33.5 -85t-35 -85q-33 -35 -83.5 -35t-85 35t-34.5 84z" />
<glyph unicode=";" horiz-adv-x="428" d="M29 -268l121 522l190 -49l-182 -506zM82 770q0 51 36 87t87 34q51 0 86 -35t35 -86t-37 -86q-35 -35 -86 -35q-51 2 -86 37t-35 84z" />
<glyph unicode="&#x3c;" horiz-adv-x="1067" d="M102 737l863 488v-146l-621 -342l621 -342v-145z" />
<glyph unicode="=" d="M106 549v153h961v-153h-961zM106 803v153h961v-153h-961z" />
<glyph unicode="&#x3e;" horiz-adv-x="1067" d="M102 250v145l621 342l-621 342v146l863 -488z" />
<glyph unicode="?" horiz-adv-x="1017" d="M14 1110q4 31 21 78q47 129 146.5 210t232.5 99q186 27 331.5 -60t200.5 -251q135 -403 -375 -631l-2 -2l-18 -10l-12 -8l-7 -5q-10 -14 -10 -16l-2 -8l-4 -17l-4 -26v-6v-111h-166v148q0 70 14.5 99.5t61.5 53.5l20 10l11 5l43 20l73 35q6 2 16.5 7t19.5 10t18 9 q119 70 159.5 149t22.5 200q-18 127 -125 202.5t-242 53.5q-96 -14 -162.5 -75t-89.5 -151q-4 -14 -8 -51zM309 94q0 49 35 84t85 36t85 -34q37 -37 37 -87t-35 -87q-37 -35 -87 -34t-85 36t-35 86z" />
<glyph unicode="@" horiz-adv-x="1585" d="M119 788q16 236 147 414q195 262 500 299q221 25 395 -68.5t258 -277.5t47 -416q-31 -193 -126 -310.5t-207 -131.5q-90 -14 -152.5 40t-54.5 134q-12 -39 -41 -72q-115 -133 -271 -61q-166 78 -151 362q4 49 8 74q41 262 199 379q102 72 194 55.5t140 -108.5q2 -4 8 -21 l20 121h98l-79 -444l-27 -183q-12 -76 4 -129q10 -39 45 -56t72 -3q51 18 121 98q76 88 102 277q45 313 -135 501.5t-469 145.5q-244 -37 -399.5 -252t-128.5 -500q6 -66 20 -116q39 -158 136 -271.5t221 -167t269.5 -42t278.5 91.5q47 29 103 73q66 53 112 117l45 -64 q-25 -31 -51 -57q-238 -246 -541 -246q-315 0 -522.5 234.5t-187.5 580.5zM575 596q2 -78 27 -129q29 -61 95.5 -72.5t117.5 37.5q49 47 96 174q23 70 39 158l4 22l13 86q16 109 -11 162q-37 72 -98 85.5t-127 -36.5q-68 -49 -117 -202q-14 -43 -24 -101q-19 -100 -15 -184z " />
<glyph unicode="A" horiz-adv-x="1263" d="M-59 0l614 1475h156l612 -1475h-190l-168 410h-666l-168 -410h-190zM365 563h534l-225 572q-33 82 -41 153q-12 -80 -41 -153z" />
<glyph unicode="B" horiz-adv-x="1095" d="M119 0v1475h313q176 0 246 -31q186 -82 231 -248q14 -54 15 -105q0 -72 -29 -138q-49 -112 -154 -156l56 -13q137 -43 205 -164q48 -86 49 -192q0 -44 -9 -92q-23 -131 -127 -227q-68 -59 -140.5 -84t-184.5 -25h-471zM295 156h252q178 0 265 91q65 69 66 166q0 32 -8 68 q-45 207 -340 207h-6h-229v-532zM295 844h176q240 0 272 192q5 29 5 56q0 92 -60 151q-78 76 -239 76h-154v-475z" />
<glyph unicode="C" horiz-adv-x="1347" d="M66 727q2 369 263 592q212 182 496 181q65 0 133 -9q193 -29 345 -143l-99 -144q-102 82 -229 113q-68 16 -137 16q-59 0 -119 -12q-184 -37 -309 -167t-154 -312q-10 -61 -10 -120q0 -188 106 -340q139 -200 387 -241q46 -7 91 -6q120 0 235 47q74 31 139 84l96 -145 q-139 -98 -303 -133q-91 -19 -178 -20q-99 0 -193 25q-179 46 -317 167q-244 222 -244 556q1 5 1 11z" />
<glyph unicode="D" horiz-adv-x="1318" d="M119 0v1475h350q330 0 530 -172q150 -125 214 -314q40 -118 41 -244q0 -77 -15 -157q-25 -143 -104 -269q-211 -319 -615 -319h-401zM295 158h233q233 0 395 167q159 165 158 414q0 252 -169 416q-167 162 -416 162h-201v-1159z" />
<glyph unicode="E" horiz-adv-x="960" d="M119 0v1475h753v-156h-577v-434h496v-156h-496v-573h606v-156h-782z" />
<glyph unicode="F" horiz-adv-x="823" d="M119 0v1475h690v-156h-514v-434h446v-156h-446v-729h-176z" />
<glyph unicode="G" horiz-adv-x="1601" d="M80 877q25 145 106 274q176 270 480 332q93 19 180 19q306 0 543 -234q25 -25 69 -78l-133 -121q-33 45 -53 66q-131 145 -309 186q-66 15 -131 15q-110 0 -218 -44q-170 -70 -274 -233q-61 -90 -84 -211q-10 -59 -10 -117q0 -97 28 -188q45 -145 150 -246 q129 -125 311 -154q58 -9 112 -9q163 0 289 84q167 112 210 325q4 16 8 49h-533v153h721q2 -30 2 -58.5t-2 -55.5q-29 -338 -266 -520q-184 -141 -434 -141q-73 0 -152 12q-317 49 -494 306q-132 191 -132 423q0 81 16 166z" />
<glyph unicode="H" horiz-adv-x="1327" d="M119 0v1475h176v-590h737v590h176v-1475h-176v729h-737v-729h-176z" />
<glyph unicode="I" horiz-adv-x="413" d="M119 0v1475h176v-1475h-176z" />
<glyph unicode="J" horiz-adv-x="679" d="M-59 80l100 133l18 -18q74 -61 147 -61q18 0 36 3q90 18 120 107q23 59 23 217v1014h176v-1031q0 -254 -94 -368q-85 -104 -249 -104q-18 0 -36 1q-121 10 -215 84q-16 13 -26 23z" />
<glyph unicode="K" horiz-adv-x="1087" d="M119 0v1475h176v-1475h-176zM301 772l582 703h227l-590 -707l649 -768h-225z" />
<glyph unicode="L" horiz-adv-x="774" d="M119 0v1475h176v-1319h477v-156h-653z" />
<glyph unicode="M" horiz-adv-x="1740" d="M29 0l207 1475h131l458 -1082q23 -55 39 -127q0 -6 2 -19.5t4 -19.5q4 39 19 88q14 51 26 78l459 1082h131l207 -1475h-180l-123 975q-8 57 -8 135v41q-12 -78 -47 -156l-426 -995h-115l-426 995q-35 78 -47 156v-41q-4 -100 -8 -135l-123 -975h-180z" />
<glyph unicode="N" horiz-adv-x="1536" d="M119 0v1475h149l901 -1086q66 -80 97 -156q-4 16 -9 41q-18 100 -18 154v1047h178v-1475h-145l-910 1090q-63 76 -92 145l6 -37q18 -100 19 -139v-1059h-176z" />
<glyph unicode="O" horiz-adv-x="1681" d="M66 737.5q0 329.5 229 552.5q135 131 316 185q110 32 226 32q76 0 154 -14q227 -41 395 -203q168 -164 216 -397q16 -81 15 -160q0 -116 -34 -228q-57 -187 -197 -323q-219 -213 -544 -213q-324 0 -547 213q-229 226 -229 555.5zM244 737q0 -195 102 -344 q102 -152 264 -217q108 -44 226 -44q59 0 120 11q238 43 379 250q68 100 90 217q14 72 15 140q0 182 -105 329q-176 262 -493 262q-154 0 -282 -67.5t-214 -194.5q-102 -145 -102 -342z" />
<glyph unicode="P" horiz-adv-x="940" d="M119 0v1475h336q254 0 379 -136q94 -102 94 -255q0 -51 -10 -107q-23 -141 -134.5 -228t-279.5 -87h-209v-662h-176zM295 815h158q137 0 215 69.5t78 190.5q0 112 -74 177q-76 67 -219 67h-158v-504z" />
<glyph unicode="Q" horiz-adv-x="1679" d="M80 582q-15 83 -15 162q0 154 57 295q87 214 278.5 340t437 126t437 -126t278.5 -339q57 -140 58 -295q0 -80 -16 -163q-41 -213 -186 -377l205 -180l-135 -127l-199 204q-193 -134 -433 -134q-75 0 -155 14q-236 39 -402.5 203t-209.5 397zM256 612q33 -178 161 -306 t308 -163q62 -12 121 -11q166 0 309 93l-334 316l123 131l334 -344q113 125 143 284q13 68 13 134q0 180 -100 331q-136 207 -384 254q-56 9 -112 9l-113 -9q-248 -47 -383 -253q-99 -151 -99 -331q0 -66 13 -135z" />
<glyph unicode="R" horiz-adv-x="991" d="M119 0v1475h325q416 0 476 -326q9 -54 9 -103q0 -121 -58 -211q-81 -128 -257 -173q-10 -4 -39 -9l445 -653h-217l-508 764v-764h-176zM295 770h137q129 0 208 55.5t101 153.5q9 43 9 81q0 111 -74 185q-80 74 -234 74h-147v-549z" />
<glyph unicode="S" horiz-adv-x="1026" d="M-8 276l143 93l25 -43q88 -133 217 -174q23 -8 57 -15q25 -3 49 -3q94 0 166 46q113 74 126 199q2 17 2 32q0 101 -75 156q-59 43 -188 99q-8 4 -24.5 11t-24.5 11q-131 53 -148 62q-197 92 -232 288q-7 36 -7 72q0 153 129 276q116 111 297 111q43 0 90 -6 q133 -16 244 -121q39 -39 69 -88q16 -25 25 -39l-154 -78l-14 29q-70 121 -205 143q-28 5 -55 5q-76 0 -135 -39q-88 -59 -102 -162q-2 -17 -2 -33q0 -81 57 -137q31 -31 73.5 -54.5t161.5 -70.5q33 -12 47 -21q266 -117 338 -288q25 -61 25 -125q0 -117 -84 -244 q-131 -197 -399 -197q-39 0 -81 4q-248 27 -385 252q-10 16 -26 49z" />
<glyph unicode="T" horiz-adv-x="862" d="M-29 1305v170h920v-170h-371v-1305h-178v1305h-371z" />
<glyph unicode="U" horiz-adv-x="1308" d="M119 571v904h176v-885q0 -223 66.5 -324.5t222.5 -126.5q36 -6 71 -6t70 6q156 25 221.5 125.5t65.5 325.5v885h178v-904q0 -270 -106.5 -414.5t-325.5 -179.5q-51 -9 -103 -9t-104 9q-221 37 -326.5 180.5t-105.5 413.5z" />
<glyph unicode="V" horiz-adv-x="1107" d="M-59 1475h192l379 -1065q16 -53 25 -84q10 -51 16 -101q0 8 4 24.5t4 24.5q12 74 35 136l379 1065h192l-546 -1475h-134z" />
<glyph unicode="W" horiz-adv-x="1941" d="M-45 1475h190l340 -1051q31 -100 37 -191q10 76 15 99q12 70 18 90l346 1053h139l346 -1053q6 -18 19 -90q6 -27 14 -99q0 16 4 50q10 68 33 141l340 1051h191l-498 -1475h-139l-334 1018q-20 53 -39 166l-6 43q-2 -16 -6 -45q-20 -111 -39 -164l-334 -1018h-139z" />
<glyph unicode="X" horiz-adv-x="1210" d="M-14 0l493 795l-418 680h209l230 -385l35 -56l8 -16q41 -82 61 -164q20 82 62 164l10 16l33 56l229 385h209l-416 -680l494 -795h-209l-328 545l-31 55l-8 16q-35 68 -45 144q-12 -82 -43 -144l-8 -16l-33 -55l-327 -545h-207z" />
<glyph unicode="Y" horiz-adv-x="972" d="M-59 1475h206l293 -547q39 -72 47 -137q6 63 45 137l295 547h205l-457 -822v-653h-176v653z" />
<glyph unicode="Z" horiz-adv-x="1093" d="M29 0v119l719 1116q41 63 94 108q-63 -25 -152 -24h-590v156h930v-109l-715 -1118q-47 -72 -104 -119q76 27 147 27h699v-156h-1028z" />
<glyph unicode="[" horiz-adv-x="440" d="M119 -158v1790h307v-141h-137v-1507h137v-142h-307z" />
<glyph unicode="\" horiz-adv-x="591" d="M102 1475h129l258 -1475h-129z" />
<glyph unicode="]" horiz-adv-x="440" d="M14 -16h138v1507h-138v141h308v-1790h-308v142z" />
<glyph unicode="^" horiz-adv-x="1181" d="M102 356l488 863l489 -863h-147l-342 621l-340 -621h-148z" />
<glyph unicode="_" horiz-adv-x="942" d="M102 0h738v-55h-738v55z" />
<glyph unicode="`" horiz-adv-x="499" d="M2 1370l133 109l262 -316l-104 -86z" />
<glyph unicode="a" horiz-adv-x="1198" d="M72 575q20 150 116 269q96 117 236 155q65 18 128 18q73 0 144 -24q133 -45 213 -162v156h170v-987h-170v143q-25 -35 -49 -59q-119 -117 -289 -117q-47 0 -98 8q-152 25 -257 129.5t-138 268.5q-12 60 -12 119q0 42 6 83zM244 475q4 -121 62.5 -209t154.5 -125 q62 -25 122 -24q85 0 167 49q137 84 161 264q5 35 5 69q0 76 -25 143q-37 97 -115 155q-100 66 -203 66h-3q-101 0 -186 -66q-87 -68 -122 -181q-19 -61 -18 -128v-13z" />
<glyph unicode="b" horiz-adv-x="1204" d="M119 0v1475h170v-641q25 31 26 32q131 149 323 149q53 0 112 -11q152 -31 253 -139.5t127 -272.5q9 -54 10 -105q0 -142 -71 -264q-106 -193 -299 -239q-61 -16 -120 -16q-65 0 -127 19q-120 36 -204 128q-4 6 -14 19t-16 22v-156h-170zM293 486q0 -242 203 -326 q71 -30 137 -30q81 0 155 44q135 80 162 256q7 34 7 68q0 28 -5 57q-16 119 -88.5 199t-179.5 100q-39 8 -75 8q-114 0 -200 -79q-116 -105 -116 -297z" />
<glyph unicode="c" horiz-adv-x="927" d="M74 578q16 104 71 192q153 243 454 243q46 0 95 -5q102 -8 199 -62l-53 -158l-49 25q-98 42 -188 42q-86 0 -164 -39q-159 -79 -189 -263q-7 -40 -7 -78q0 -143 99 -245q102 -105 251 -104q33 0 69 5q63 10 120 37q29 12 56 31l61 -152q-109 -59 -215 -74q-54 -8 -104 -7 q-199 0 -342 122q-100 88 -145 217q-28 83 -28 172q0 50 9 101z" />
<glyph unicode="d" horiz-adv-x="1202" d="M74 588q18 106 69 190q119 190 316 226q58 11 111 11q191 0 317 -145q16 -20 26 -34v639h170v-1475h-170v158q-14 -31 -41 -60q-113 -130 -306 -130q-53 0 -111 9q-195 31 -307 205q-84 131 -83 294q0 55 9 112zM334 241q80 -97 203 -114q29 -4 55 -4q126 0 217 86 q111 104 111 289q2 135 -68 228t-188 122q-45 11 -88 11q-112 0 -202 -79q-122 -107 -122 -293q0 -146 82 -246z" />
<glyph unicode="e" horiz-adv-x="1120" d="M66 463q-1 14 -1 28q0 189 102 326q110 147 288 184q68 15 131 15q163 0 287 -100q173 -138 188 -404q1 -10 1 -24q0 -28 -3 -72h-811q0 -2 6 -39q29 -123 118 -193q84 -66 198 -65h14q182 4 284 178q8 12 15 22l153 -88q-6 -14 -16 -26q-161 -238 -442 -239q-40 0 -82 5 q-184 23 -303 158t-127 334zM246 563h624q0 6 -1 18.5t-1 18.5q-16 139 -125 215q-76 53 -167 53q-40 0 -82 -10q-88 -20 -149.5 -84.5t-88.5 -165.5q-8 -27 -10 -45z" />
<glyph unicode="f" horiz-adv-x="481" d="M0 840v147h145v168q0 195 126 289q79 59 189 59q64 0 138 -20q10 -2 31 -10l-43 -150q-4 2 -13.5 6t-13.5 6q-40 14 -75 14q-26 0 -50 -8q-68 -18 -93.5 -64t-25.5 -149v-141h271v-147h-271v-840h-170v840h-145z" />
<glyph unicode="g" horiz-adv-x="1191" d="M74 584q23 158 121 270.5t241 149.5q56 14 113 14q43 0 86 -8q197 -33 268 -179v156h170v-944q0 -229 -148 -351q-133 -109 -367 -109q-27 0 -56 1q-86 4 -160 37q-176 82 -248 250l156 70q4 -6 10 -17.5t8 -17.5q86 -143 264 -168q33 -4 64 -4q104 0 180 49 q98 63 121 182q6 27 6 55v121q-14 -29 -39 -51q-112 -120 -293 -120q-38 0 -79 5q-152 18 -263 121q-94 86 -136 213q-27 83 -27 174q0 50 8 101zM246 483q4 -143 83 -240.5t201 -119.5q26 -5 54 -5q46 0 96 13q115 35 179 131q63 93 63 231q0 260 -203 349q-74 33 -144 33 q-82 0 -158 -46q-142 -84 -167 -270q-4 -49 -4 -76z" />
<glyph unicode="h" horiz-adv-x="1071" d="M119 0v1475h170v-625q6 10 22 31q88 98 209 125q54 11 103 10q129 0 214 -76q116 -104 115 -324v-616h-176v588q0 125 -44 188.5t-138 79.5q-25 4 -49 4q-97 0 -168 -74q-88 -92 -88 -260v-526h-170z" />
<glyph unicode="i" horiz-adv-x="405" d="M88 1274q0 47 34 81t83 36q49 0 84 -35q35 -33 35 -82t-35 -84t-84 -35q-49 2 -83 37t-34 82zM121 0v987h170v-987h-170z" />
<glyph unicode="j" horiz-adv-x="415" d="M-170 -375l47 158q4 -2 11.5 -5t9.5 -3q51 -18 90 -18q54 0 86 34q55 59 55 234v962h170v-991q-3 -403 -287 -403q-69 0 -155 24q-21 6 -27 8zM96 1276q0 47 34 81t83 36q51 0 86 -35t35 -84t-35 -82q-35 -35 -86 -35q-49 0 -83 35t-34 84z" />
<glyph unicode="k" horiz-adv-x="882" d="M119 0v1475h170v-1475h-170zM295 535l387 452h227l-401 -459l457 -528h-226z" />
<glyph unicode="l" horiz-adv-x="407" d="M119 0v1475h170v-1475h-170z" />
<glyph unicode="m" horiz-adv-x="1591" d="M119 0v987h170v-158q6 8 18 29q84 113 193 141q46 11 89 11q70 0 132 -28q100 -46 141 -140q2 4 23 35q72 100 188 124q42 8 82 9q58 0 112 -18q91 -30 142 -97q37 -49 50.5 -102.5t13.5 -165.5v-627h-173v596q0 145 -63 210q-44 45 -112 45q-30 0 -66 -9 q-84 -18 -131 -87t-47 -177v-578h-168v598q0 53 -4 94q-14 100 -103 142q-38 18 -79 17q-53 0 -109 -30q-129 -68 -129 -264v-557h-170z" />
<glyph unicode="n" horiz-adv-x="1069" d="M119 0v987h170v-162q6 10 14 23q98 141 240 162q42 7 80 7q131 0 217 -82q111 -105 110 -312v-623h-170v584q0 158 -77 230q-55 52 -139 52q-33 0 -70 -8q-96 -23 -150.5 -102.5t-54.5 -206.5v-549h-170z" />
<glyph unicode="o" horiz-adv-x="1200" d="M66 491.5q0 223.5 151.5 373t382.5 149.5q264 0 419 -189q116 -142 116 -322q0 -60 -13 -124q-35 -178 -179 -293t-343 -115q-231 0 -382.5 148.5t-151.5 372zM238 491.5q0 -139.5 81.5 -238.5t215.5 -124q33 -6 65 -6l66 6q154 29 235 152q61 91 61 203q0 39 -8 81 q-18 111 -97 188.5t-191 100.5q-33 6 -66 6l-65 -6q-133 -25 -215 -124t-82 -238.5z" />
<glyph unicode="p" horiz-adv-x="1198" d="M119 -385v1372h170v-182q4 8 22 37q120 174 329 174q51 0 108 -10q193 -37 301 -204q85 -130 84 -298q0 -48 -7 -98q-20 -162 -117.5 -275t-236.5 -147q-67 -17 -130 -17q-84 0 -160 30q-132 52 -193 171v-551zM496 147q70 -28 135 -28q82 0 156 45q134 80 163 258 q4 34 4 67.5t-4 67.5q-25 166 -138 247q-79 57 -178 56q-43 0 -89 -10q-123 -29 -191 -125q-66 -93 -65 -233q0 -258 207 -345z" />
<glyph unicode="q" horiz-adv-x="1189" d="M74 586q27 160 126 272.5t236 142.5q61 13 117 14q187 0 324 -147q16 -20 24 -28v147h170v-1370l-170 -2v539q-4 -6 -13 -18.5t-14 -18.5q-128 -150 -324 -150q-53 0 -112 10q-184 37 -293 209q-81 128 -81 288q1 54 10 112zM242 487q0 -153 88 -256q98 -114 244 -113h13 q155 5 244 126q55 74 70 184q5 38 5 73q0 94 -36 171q-49 104 -149 153q-78 40 -154 41q-74 0 -145 -40q-143 -79 -174 -263q-6 -34 -6 -76z" />
<glyph unicode="r" horiz-adv-x="606" d="M119 0v987h170v-188q6 20 18 43q90 166 262 170q9 1 19 0l92 -17l-47 -184q-47 20 -88 20q-5 0 -10 1q-114 0 -189 -95q-57 -70 -57 -198v-539h-170z" />
<glyph unicode="s" horiz-adv-x="778" d="M8 203l152 76q2 -4 6 -14.5t6 -14.5q39 -74 102 -108q47 -25 98 -24q19 0 38 3q84 12 122 82q18 37 19 69q0 33 -20 61q-38 54 -171 109q-29 12 -41 19q-156 70 -207 145q-36 52 -36 118q0 31 8 67q25 113 131 175q78 46 174 46q35 0 72 -6q84 -16 145 -64 q68 -51 101 -127l-148 -74l-5 11q-3 6 -5 8q-37 68 -90 90q-29 14 -58 14l-28 -4q-55 -6 -88 -45q-33 -37 -33 -73q0 -16 6 -31q20 -51 107 -90l8 -3l86 -34q6 -2 17 -7.5t18 -7.5q174 -78 220 -203q15 -42 15 -85q0 -85 -61 -172q-51 -76 -140 -112q-68 -28 -151 -28 q-24 0 -49 2q-197 18 -295 187q-13 18 -25 45z" />
<glyph unicode="t" horiz-adv-x="540" d="M-14 840v147h143v270h170v-270h272v-147h-272v-506v-21l2 -65q2 -76 61 -107q27 -14 65 -14q45 0 103 20q6 4 19 9l43 -152q-6 0 -14.5 -4t-14.5 -4q-95 -23 -167 -23q-105 0 -166 47q-101 80 -101 306v514h-143z" />
<glyph unicode="u" horiz-adv-x="1081" d="M119 393v594h170v-575q0 -145 63 -209q63 -70 189 -70q252 0 252 279v575h170v-594q0 -176 -89.5 -283.5t-261.5 -134.5q-36 -5 -71 -5l-72 5q-172 27 -261 134.5t-89 283.5z" />
<glyph unicode="v" horiz-adv-x="866" d="M-59 987h186l256 -612q37 -88 49 -178q18 102 49 178l258 612h187l-434 -987h-117z" />
<glyph unicode="w" horiz-adv-x="1456" d="M-45 987h188l217 -604q29 -84 41 -168q10 66 21 96l6 19l18 55l218 602h129l217 -602l18 -53l6 -21q16 -55 21 -96q12 88 41 168l219 604h186l-385 -987h-123l-213 573q-41 111 -51 193q-12 -86 -53 -193l-213 -573h-121z" />
<glyph unicode="x" horiz-adv-x="911" d="M-45 0l401 520l-360 467h215l184 -254q47 -68 60 -123q12 53 61 123l182 254h217l-362 -467l403 -520h-215l-215 287q-47 63 -71 143q-23 -78 -70 -143l-217 -287h-213z" />
<glyph unicode="y" horiz-adv-x="858" d="M-59 987h184l258 -649l20 -53l7 -17q12 -47 18 -92q10 68 49 166l256 645h191l-441 -1063l-20 -49l-33 -72q-53 -117 -135 -165q-70 -42 -175 -43q-17 0 -36 2q-41 4 -84 12q-4 2 -14.5 5t-16.5 3l43 158q4 0 11.5 -2t11.5 -4q43 -13 79 -13q46 0 82 21q62 37 109 151 l25 58l10 26z" />
<glyph unicode="z" horiz-adv-x="917" d="M12 0v104l590 674q29 31 55 53q33 27 64 43q-6 -2 -17.5 -5t-15.5 -3q-98 -27 -123 -26h-485v147h825v-100l-581 -670q-63 -70 -121 -106q6 2 16 5t14 5q86 27 140 26h518v-147h-879z" />
<glyph unicode="{" horiz-adv-x="622" d="M102 737q55 4 91 44t36 102v686q0 135 160 135h131v-76h-22q-74 0 -97.5 -24.5t-23.5 -100.5v-606q0 -63 -39 -108.5t-98 -51.5q59 -6 98 -51t39 -108v-607q0 -76 23.5 -100.5t97.5 -24.5h22v-75h-131q-160 0 -160 135v686q0 98 -79 133q-15 8 -48 12z" />
<glyph unicode="|" horiz-adv-x="333" d="M102 0v1475h129v-1475h-129z" />
<glyph unicode="}" horiz-adv-x="622" d="M102 -154h23q74 0 97.5 25t23.5 100v607q0 63 40 108t99 51q-31 4 -53 15q-86 43 -86 145v606q0 76 -23.5 100.5t-97.5 24.5h-23v76h134q158 0 157 -135v-686q0 -96 80 -133q14 -8 47 -13q-33 -4 -47 -12q-80 -37 -80 -133v-686q0 -135 -157 -135h-134v75z" />
<glyph unicode="~" horiz-adv-x="940" d="M102 598v35q10 147 93.5 199.5t212.5 -3.5l157 -65q4 -2 12.5 -5t12.5 -5q70 -20 100.5 -3t42.5 87q0 4 1 10t1 8h103v-33q-10 -147 -93 -199.5t-213 3.5l-157 65q-4 0 -12.5 3t-14.5 5q-70 23 -99.5 5.5t-41.5 -87.5q0 -4 -1 -10t-1 -10h-103z" />
<glyph unicode="&#xa1;" horiz-adv-x="479" d="M119 1376q0 49 34.5 84t84.5 37q51 0 85.5 -35t34.5 -85t-34.5 -85t-83.5 -35q-51 0 -86 35t-35 84zM156 0v1130h159v-1130h-159z" />
<glyph unicode="&#xa2;" horiz-adv-x="927" d="M74 573q27 160 128 271.5t253 150.5q33 10 75 15v159h101v-157q49 0 76 -4q96 -14 186 -62l-53 -158q-76 47 -156 56q-37 4 -55 4v-721q27 0 47 6q86 16 162 66l61 -152q-129 -72 -274 -82v-162h-101v164q-33 4 -53 8q-156 33 -257 135.5t-136 258.5q-22 104 -4 204z M252 555q-27 -156 51 -274q84 -127 225 -148v711q-16 -4 -28 -8q-207 -62 -248 -281z" />
<glyph unicode="&#xa3;" horiz-adv-x="1142" d="M59 0v162l197 356h-195v158h289l234 411q115 203 213 289t247 119q10 4 39 8v-170q-25 -4 -41 -8q-88 -25 -155.5 -88t-147.5 -207l-202 -354h276v-158h-367l-196 -358h829v-160h-1020z" />
<glyph unicode="&#xa4;" horiz-adv-x="933" d="M102 438l131 129q-57 76 -58 171.5t56 170.5l-127 123q16 25 27 35l16 16l15 15l131 -127q78 57 174 57t174 -57l127 129q33 -25 63 -66l-129 -123q55 -78 54.5 -173t-56.5 -173l129 -129l-14 -16l-14 -14q-10 -10 -35 -31l-127 129q-76 -59 -172 -58.5t-172 60.5 l-133 -129q-31 22 -60 61zM268 737q0 -80 60 -139q57 -57 138 -57t138 57q59 57 59.5 139t-59.5 140q-57 57 -138 57t-138 -57q-60 -60 -60 -140z" />
<glyph unicode="&#xa5;" horiz-adv-x="1239" d="M74 1475h207l292 -547q39 -72 48 -137q6 63 45 137l295 547h204l-352 -633h291v-135h-369l-26 -54v-39h397v-135h-395l-2 -479h-177v481h-401l-2 140h403v32l-30 49h-373v142h303z" />
<glyph unicode="&#xa7;" horiz-adv-x="1120" d="M68 605q0 132 110 245q35 37 80 68q6 4 17.5 11t17.5 9q-74 78 -86 219q-6 53 10 105q63 213 311 237q59 8 138 -6q117 -27 190.5 -96.5t93.5 -171.5q6 -29 6 -56l-163 -18q-10 51 -35 84q-49 76 -127 92q-84 20 -144 -10q-94 -47 -100 -135t86 -187q35 -39 57 -49 l342 -211q154 -92 177.5 -246.5t-97.5 -293.5q-59 -66 -133 -99l25 -30q55 -80 55 -170q2 -162 -125 -259.5t-321 -64.5q-244 43 -287 262q-6 23 -6 43l176 17q2 -61 43 -104.5t110 -55.5q31 -6 72 -2q100 14 136 74.5t3 154.5q-8 27 -28 53q-35 53 -78 80l-365 234 q-23 12 -49 39q-112 106 -112 238zM254.5 653.5q-21.5 -100.5 64.5 -184.5q23 -23 41 -33l351 -213q47 16 77 45q53 45 74 105.5t6 113.5q-23 74 -75 103l-379 229q-12 -4 -19 -8q-119 -57 -140.5 -157.5z" />
<glyph unicode="&#xa8;" horiz-adv-x="530" d="M-59 1200q0 51 34 82q33 33 82 33t82 -33q35 -33 36 -82t-34 -84t-84 -35t-82 35q-34 35 -34 84zM354 1200q0 47 34 82t83 35t82 -33q35 -35 36 -84t-34 -84t-84 -35q-49 2 -84 37t-33 82z" />
<glyph unicode="&#xa9;" horiz-adv-x="1765" d="M119 739.5q0 317.5 223 540.5t540.5 223t541 -223t223.5 -540.5t-223.5 -541t-541 -223.5t-540.5 223.5t-223 541zM215 739q0 -285 197 -481q195 -199 471 -198t471 198q199 201 198.5 481.5t-198.5 481.5q-193 197 -470.5 196.5t-471.5 -196.5q-197 -201 -197 -482z M407.5 655q-20.5 127 30.5 260q63 172 220 261.5t346 56.5q137 -25 241 -115l-57 -80q-82 76 -189 95q-174 33 -312 -63.5t-167 -268.5q-35 -221 115 -367q98 -96 237.5 -110.5t260.5 61.5q37 25 53 39l57 -78q-139 -117 -325 -123q-133 -4 -246 53.5t-178.5 154.5t-86 224z " />
<glyph unicode="&#xaa;" horiz-adv-x="907" d="M109 1069q-12 72 0 143q29 147 140 226.5t240 52.5q121 -27 181 -131l10 -17l6 -14v146h119v-668h-119v156q-4 -12 -6 -17q-43 -98 -149.5 -137t-227.5 6q-159 70 -194 254zM125 594v111h680v-111h-680zM225 1143q0 -25 6 -47q18 -102 99 -158q127 -88 258 2 q76 55 94 152q12 51 0 104q-25 125 -131 174q-102 47 -201.5 -7t-120.5 -175q-4 -29 -4 -45z" />
<glyph unicode="&#xab;" horiz-adv-x="1210" d="M74 498l544 477l107 -117l-422 -356l420 -371l-102 -121zM487 498l545 477l105 -117l-420 -356l420 -371l-103 -121z" />
<glyph unicode="&#xac;" horiz-adv-x="1163" d="M102 737v129h959v-424h-111v295h-848z" />
<glyph unicode="&#xad;" horiz-adv-x="620" d="M74 414v164h473v-164h-473z" />
<glyph unicode="&#xaf;" horiz-adv-x="661" d="M-2 1124v131h666v-131h-666z" />
<glyph unicode="&#xb0;" horiz-adv-x="749" d="M102 1230.5q0 112.5 80 192.5t192.5 80t192.5 -80t80 -192.5t-80 -192.5t-192.5 -80t-192.5 80t-80 192.5zM190 1231q0 -76 54.5 -130t130.5 -54t130 54t54 130t-54 130t-130 54t-130.5 -54t-54.5 -130z" />
<glyph unicode="&#xb2;" d="M102 1049q0 201 134.5 327.5t353.5 124.5q201 -2 330 -109.5t151 -281.5q16 -135 -40 -254t-228 -285q-33 -33 -49 -47l-420 -377h766v-147h-994v154l527 479q29 27 115 112q162 180 149.5 342t-176.5 228q-178 72 -310 -14.5t-130 -256.5q0 -31 4 -47h-181q-2 19 -2 52z " />
<glyph unicode="&#xb3;" d="M98 424h178q0 -20 3 -31q14 -141 118.5 -215t257.5 -43q88 18 150.5 77.5t83.5 141.5q12 59 4 113q-18 111 -103 173t-221 58q-6 0 -16 -1t-16 -3v160q16 -4 28 -4q104 -8 181 47t96 150q23 109 -35.5 193.5t-171.5 105.5q-53 10 -105 0q-190 -33 -217 -209 q0 -6 -1 -14.5t-1 -14.5h-174q0 12 4 45q29 160 144.5 253t296.5 95q133 2 235 -55q156 -90 193 -246q29 -119 -11.5 -222.5t-136.5 -166.5q-29 -16 -45 -23q57 -18 105 -51q92 -68 131 -176t12 -233q-39 -178 -207 -285q-104 -68 -256 -74q-211 -4 -345 106.5t-157 301.5 q0 6 -1 22.5t-1 24.5z" />
<glyph unicode="&#xb4;" horiz-adv-x="462" d="M104 1167l263 318l131 -107l-295 -295z" />
<glyph unicode="&#xb6;" horiz-adv-x="1208" d="M102 1085.5q0 161.5 114 275.5t271 114h619v-97h-619q-121 0 -204.5 -87t-81.5 -210q2 -121 86 -204.5t200 -83.5h146v501h98v-1294h-98v696h-146q-158 0 -271.5 114t-113.5 275.5zM872 0v1294h99v-1294h-99z" />
<glyph unicode="&#xb7;" horiz-adv-x="368" d="M59 495.5q2 51.5 38 87t87 35.5q53 0 88 -36q37 -35 37 -87.5t-36.5 -89t-88.5 -36.5q-53 0 -90 37.5t-35 89z" />
<glyph unicode="&#xb8;" horiz-adv-x="362" d="M45 -334l184 279l131 -72l-198 -266z" />
<glyph unicode="&#xb9;" d="M289 0v147h217v1180h-215v148h385v-1328h215v-147h-602z" />
<glyph unicode="&#xba;" horiz-adv-x="909" d="M102 1147q0 37 7 70q35 172 181 250.5t306 9.5q170 -72 205 -260q12 -70 0 -142q-20 -109 -94 -183.5t-181 -96.5q-72 -16 -143 0q-106 23 -180 97.5t-94 182.5q-7 37 -7 72zM115 594v111h682v-111h-682zM223 1147q0 -31 4 -45q12 -78 60.5 -130t118.5 -69 q111 -23 195.5 49t84.5 195q0 31 -4 47q-18 117 -117.5 172t-204.5 8q-63 -29 -100 -90t-37 -137z" />
<glyph unicode="&#xbb;" horiz-adv-x="1214" d="M74 131l424 365l-422 370l102 115l549 -492l-549 -479zM487 131l424 365l-424 370l105 115l549 -492l-551 -479z" />
<glyph unicode="&#xbc;" horiz-adv-x="2729" d="M1615 344l789 1131h70v-1074h184v-147h-184v-254h-170v254h-629zM1845 401h459v576q0 8 4 53q6 43 18 86q-20 -49 -43 -82l-6 -10l-25 -35zM908 18l823 1495l92 -65l-827 -1495zM289 0v147h217v1180h-215v148h385v-1328h215v-147h-602z" />
<glyph unicode="&#xbd;" horiz-adv-x="2729" d="M1658 1049q0 201 134.5 327.5t353.5 124.5q201 -2 330 -109.5t151 -281.5q16 -135 -40 -254t-228 -285q-33 -33 -49 -47l-420 -377h766v-147h-994v154l527 479q29 27 115 112q162 180 149.5 342t-176.5 228q-178 72 -310 -14.5t-130 -256.5q0 -31 4 -47h-181q-2 19 -2 52 zM908 18l823 1495l92 -65l-827 -1495zM289 0v147h217v1180h-215v148h385v-1328h215v-147h-602z" />
<glyph unicode="&#xbe;" horiz-adv-x="2729" d="M1615 344l789 1131h70v-1074h184v-147h-184v-254h-170v254h-629zM1845 401h459v576q0 8 4 53q6 43 18 86q-20 -49 -43 -82l-6 -10l-25 -35zM908 18l823 1495l92 -65l-827 -1495zM98 424h178q0 -20 3 -31q14 -141 118.5 -215t257.5 -43q88 18 150.5 77.5t83.5 141.5 q12 59 4 113q-18 111 -103 173t-221 58q-6 0 -16 -1t-16 -3v160q16 -4 28 -4q104 -8 181 47t96 150q23 109 -35.5 193.5t-171.5 105.5q-53 10 -105 0q-190 -33 -217 -209q0 -6 -1 -14.5t-1 -14.5h-174q0 12 4 45q29 160 144.5 253t296.5 95q133 2 235 -55q156 -90 193 -246 q29 -119 -11.5 -222.5t-136.5 -166.5q-29 -16 -45 -23q57 -18 105 -51q92 -68 131 -176t12 -233q-39 -178 -207 -285q-104 -68 -256 -74q-211 -4 -345 106.5t-157 301.5q0 6 -1 22.5t-1 24.5z" />
<glyph unicode="&#xbf;" horiz-adv-x="1017" d="M72 287q-135 406 374 633l21 12l12 8l6 4q6 6 11 17l2 6l4 16l4 29v6v108h166v-145q0 -68 -15.5 -99.5t-60.5 -54.5l-18 -10l-15 -6l-53 -25l-61 -28q-25 -12 -54 -29q-119 -68 -159.5 -146.5t-22.5 -201.5q18 -127 124.5 -202t242.5 -54q96 16 162.5 75.5t88.5 149.5 q4 20 9 53l164 -41q-4 -25 -21 -77q-47 -127 -146.5 -208t-232.5 -100q-186 -27 -331.5 60.5t-200.5 249.5zM467 1374q0 47 35 86q37 35 87 34t85 -36t35 -85t-35 -85t-86 -35t-86 35t-35 86z" />
<glyph unicode="&#xc0;" horiz-adv-x="1263" d="M-59 0l614 1475h156l612 -1475h-190l-168 410h-666l-168 -410h-190zM365 563h534l-225 572q-33 82 -41 153q-12 -80 -41 -153zM383 1858l133 108l262 -315l-104 -86z" />
<glyph unicode="&#xc1;" horiz-adv-x="1263" d="M-59 0l614 1475h156l612 -1475h-190l-168 410h-666l-168 -410h-190zM365 563h534l-225 572q-33 82 -41 153q-12 -80 -41 -153zM504 1655l262 317l131 -106l-295 -295z" />
<glyph unicode="&#xc2;" horiz-adv-x="1263" d="M-59 0l614 1475h156l612 -1475h-190l-168 410h-666l-168 -410h-190zM283 1696l350 235l346 -237l-80 -125l-266 182l-275 -170zM365 563h534l-225 572q-33 82 -41 153q-12 -80 -41 -153z" />
<glyph unicode="&#xc3;" horiz-adv-x="1263" d="M-59 0l614 1475h156l612 -1475h-190l-168 410h-666l-168 -410h-190zM330 1597v138q4 2 12 5t12 3q96 27 211 2l10 -2l72 -19q6 0 17.5 -2t17.5 -4q152 -31 252 33v-143q-4 -2 -12.5 -5.5t-10.5 -3.5q-115 -39 -274 -2l-45 9l-41 10q-16 6 -35 6q-76 12 -158 -14 q-4 -2 -14 -5.5t-14 -5.5zM365 563h534l-225 572q-33 82 -41 153q-12 -80 -41 -153z" />
<glyph unicode="&#xc4;" horiz-adv-x="1263" d="M-59 0l614 1475h156l612 -1475h-190l-168 410h-666l-168 -410h-190zM276 1536q0 49 37 86q35 35 85.5 34t85 -36t34.5 -85t-35 -85q-37 -35 -87 -35t-85 35t-35 86zM365 563h534l-225 572q-33 82 -41 153q-12 -80 -41 -153zM745 1536q0 49 35 84t85 36t85 -34t36 -85 t-34 -87q-35 -35 -85 -35t-85 35q-37 37 -37 86z" />
<glyph unicode="&#xc5;" horiz-adv-x="1257" d="M-59 0l598 1413q-88 45 -102.5 143.5t57.5 167.5q59 57 141 57.5t139 -57.5q72 -70 55.5 -171t-106.5 -146l594 -1407h-187l-167 410h-666l-170 -410h-186zM362 563h535l-227 572q-23 57 -35 112q0 8 -2 21.5t-4 19.5q-8 -76 -41 -153zM532 1587q0 -43 31 -71 q29 -31 71 -31t71 28q29 31 28.5 73t-29 71t-70.5 30t-71 -28q-27 -31 -31 -72z" />
<glyph unicode="&#xc6;" horiz-adv-x="1748" d="M-59 0l909 1475h811v-156h-578v-434l496 4l-4 -160h-492v-573h607v-156h-783v410h-512l-260 -410h-194zM487 563h420v717z" />
<glyph unicode="&#xc7;" horiz-adv-x="1347" d="M66 727q2 369 263 592t629 172q193 -29 345 -143l-99 -144q-102 82 -229 113t-256 4q-184 -37 -309 -167t-154 -312q-43 -260 96.5 -460t386.5 -241q168 -25 326 41q74 31 139 84l96 -145q-139 -98 -303 -133q-193 -41 -372 5t-316 167q-247 225 -243 567zM567 -334 l185 279l131 -72l-199 -266z" />
<glyph unicode="&#xc8;" horiz-adv-x="960" d="M119 0v1475h753v-156h-577v-434h496v-156h-496v-573h606v-156h-782zM231 1858l134 108l262 -315l-105 -86z" />
<glyph unicode="&#xc9;" horiz-adv-x="960" d="M119 0v1475h753v-156h-577v-434h496v-156h-496v-573h606v-156h-782zM352 1655l262 317l131 -106l-294 -295z" />
<glyph unicode="&#xca;" horiz-adv-x="960" d="M119 0v1475h753v-156h-577v-434h496v-156h-496v-573h606v-156h-782zM131 1696l350 235l346 -237l-79 -125l-267 182l-274 -170z" />
<glyph unicode="&#xcb;" horiz-adv-x="960" d="M119 0v1475h753v-156h-577v-434h496v-156h-496v-573h606v-156h-782zM156 1688q0 51 34 81q35 33 82 33t82 -32.5t36 -82t-34 -83.5q-33 -35 -82 -35t-83.5 35t-34.5 84zM569 1688q0 47 34 81.5t83 34.5t82 -32q35 -35 36 -84.5t-34 -84t-84 -34.5q-49 2 -84 37t-33 82z " />
<glyph unicode="&#xcc;" horiz-adv-x="413" d="M-41 1858l133 108l262 -315l-104 -86zM119 0v1475h176v-1475h-176z" />
<glyph unicode="&#xcd;" horiz-adv-x="413" d="M80 1655l262 317l131 -106l-295 -295zM119 0v1475h176v-1475h-176z" />
<glyph unicode="&#xce;" horiz-adv-x="413" d="M-141 1696l350 235l346 -237l-80 -125l-266 182l-275 -170zM119 0v1475h176v-1475h-176z" />
<glyph unicode="&#xcf;" horiz-adv-x="413" d="M-117 1688q0 51 35 81q33 33 82 33t82 -33q35 -33 36 -82t-34 -83.5t-84 -34.5t-82 35q-35 35 -35 84zM119 0v1475h176v-1475h-176zM297 1688q0 47 34 81.5t83 34.5t82 -32q35 -35 35.5 -84.5t-34 -84t-83.5 -34.5q-49 2 -84 37t-33 82z" />
<glyph unicode="&#xd1;" horiz-adv-x="1536" d="M119 0v1475h149l901 -1086q66 -80 97 -156q-4 16 -9 41q-18 100 -18 154v1047h178v-1475h-145l-910 1090q-63 76 -92 145l6 -37q18 -100 19 -139v-1059h-176zM467 1597v138q4 2 12 5t13 3q96 27 210 2l11 -2l71 -19q6 0 17.5 -2t17.5 -4q152 -31 252 33v-143 q-4 -2 -12 -5.5t-10 -3.5q-115 -39 -275 -2l-45 9l-41 10q-14 6 -35 6q-76 12 -157 -14q-4 -2 -14.5 -5.5t-14.5 -5.5z" />
<glyph unicode="&#xd2;" horiz-adv-x="1681" d="M66 737.5q0 329.5 229 552.5q135 131 316.5 184.5t379.5 18.5q227 -41 395 -203q168 -164 216 -397q39 -201 -18.5 -388.5t-197.5 -322.5q-219 -213 -544 -213q-324 0 -547 213q-229 226 -229 555.5zM244 737q0 -195 102 -344q102 -152 264 -217t346 -33q238 43 379 250 q68 100 90 217q53 266 -90 469q-176 262 -493 262q-154 0 -282 -67.5t-214 -194.5q-102 -145 -102 -342zM592 1858l133 108l262 -315l-104 -86z" />
<glyph unicode="&#xd3;" horiz-adv-x="1681" d="M66 737.5q0 329.5 229 552.5q135 131 316.5 184.5t379.5 18.5q227 -41 395 -203q168 -164 216 -397q39 -201 -18.5 -388.5t-197.5 -322.5q-219 -213 -544 -213q-324 0 -547 213q-229 226 -229 555.5zM244 737q0 -195 102 -344q102 -152 264 -217t346 -33q238 43 379 250 q68 100 90 217q53 266 -90 469q-176 262 -493 262q-154 0 -282 -67.5t-214 -194.5q-102 -145 -102 -342zM713 1655l262 317l131 -106l-295 -295z" />
<glyph unicode="&#xd4;" horiz-adv-x="1681" d="M66 737.5q0 329.5 229 552.5q135 131 316.5 184.5t379.5 18.5q227 -41 395 -203q168 -164 216 -397q39 -201 -18.5 -388.5t-197.5 -322.5q-219 -213 -544 -213q-324 0 -547 213q-229 226 -229 555.5zM244 737q0 -195 102 -344q102 -152 264 -217t346 -33q238 43 379 250 q68 100 90 217q53 266 -90 469q-176 262 -493 262q-154 0 -282 -67.5t-214 -194.5q-102 -145 -102 -342zM492 1696l350 235l346 -237l-80 -125l-266 182l-275 -170z" />
<glyph unicode="&#xd5;" horiz-adv-x="1681" d="M66 737.5q0 329.5 229 552.5q135 131 316.5 184.5t379.5 18.5q227 -41 395 -203q168 -164 216 -397q39 -201 -18.5 -388.5t-197.5 -322.5q-219 -213 -544 -213q-324 0 -547 213q-229 226 -229 555.5zM244 737q0 -195 102 -344q102 -152 264 -217t346 -33q238 43 379 250 q68 100 90 217q53 266 -90 469q-176 262 -493 262q-154 0 -282 -67.5t-214 -194.5q-102 -145 -102 -342zM539 1597v138q4 2 12 5t12 3q96 27 211 2l10 -2l72 -19q6 0 17.5 -2t17.5 -4q152 -31 252 33v-143q-4 -2 -12.5 -5.5t-10.5 -3.5q-115 -39 -274 -2l-45 9l-41 10 q-14 6 -35 6q-76 12 -158 -14q-4 -2 -14 -5.5t-14 -5.5z" />
<glyph unicode="&#xd6;" horiz-adv-x="1681" d="M66 737.5q0 329.5 229 552.5q135 131 316.5 184.5t379.5 18.5q227 -41 395 -203q168 -164 216 -397q39 -201 -18.5 -388.5t-197.5 -322.5q-219 -213 -544 -213q-324 0 -547 213q-229 226 -229 555.5zM233 1538q0 49 35 88q35 35 87.5 35t86.5 -37q35 -35 34 -86t-38 -86 q-35 -35 -85 -34t-85 36t-35 84zM244 737q0 -195 102 -344q102 -152 264 -217t346 -33q238 43 379 250q68 100 90 217q53 266 -90 469q-176 262 -493 262q-154 0 -282 -67.5t-214 -194.5q-102 -145 -102 -342zM1194 1536q-2 49 33 86t88 39q55 4 94 -35q39 -35 39 -87 t-39 -87t-92 -35q-51 2 -87 37t-36 82z" />
<glyph unicode="&#xd8;" horiz-adv-x="1689" d="M66 27l200 196q-125 129 -174 304t-10 368q51 266 264 439t496 175q309 0 528 -209l197 189l57 -57l-194 -191q117 -131 161.5 -303t10.5 -358q-51 -266 -265.5 -440.5t-494.5 -174.5q-299 0 -516 193l-201 -199zM260 864q-49 -238 74 -444q14 -27 51 -76l860 844 q-43 33 -84 59q-205 123 -416 80q-199 -39 -323.5 -159t-161.5 -304zM453 285q201 -197 505 -142q236 43 379 252q66 96 90 213q59 305 -124 508z" />
<glyph unicode="&#xd9;" horiz-adv-x="1308" d="M119 571v904h176v-885q0 -223 66.5 -324.5t222.5 -126.5q72 -12 141 0q156 25 221.5 125.5t65.5 325.5v885h178v-904q0 -270 -106.5 -414.5t-325.5 -179.5q-102 -18 -207 0q-221 37 -326.5 180.5t-105.5 413.5zM406 1858l133 108l262 -315l-105 -86z" />
<glyph unicode="&#xda;" horiz-adv-x="1308" d="M119 571v904h176v-885q0 -223 66.5 -324.5t222.5 -126.5q72 -12 141 0q156 25 221.5 125.5t65.5 325.5v885h178v-904q0 -270 -106.5 -414.5t-325.5 -179.5q-102 -18 -207 0q-221 37 -326.5 180.5t-105.5 413.5zM526 1655l262 317l132 -106l-295 -295z" />
<glyph unicode="&#xdb;" horiz-adv-x="1308" d="M119 571v904h176v-885q0 -223 66.5 -324.5t222.5 -126.5q72 -12 141 0q156 25 221.5 125.5t65.5 325.5v885h178v-904q0 -270 -106.5 -414.5t-325.5 -179.5q-102 -18 -207 0q-221 37 -326.5 180.5t-105.5 413.5zM305 1696l350 235l346 -237l-79 -125l-267 182l-274 -170z " />
<glyph unicode="&#xdc;" horiz-adv-x="1308" d="M119 571v904h176v-885q0 -223 66.5 -324.5t222.5 -126.5q72 -12 141 0q156 25 221.5 125.5t65.5 325.5v885h178v-904q0 -270 -106.5 -414.5t-325.5 -179.5q-102 -18 -207 0q-221 37 -326.5 180.5t-105.5 413.5zM348 1528q0 51 35 86t85 35t85 -35q35 -37 35 -87t-37 -85 q-35 -35 -85 -35t-83 37q-35 35 -35 84zM721 1528q0 51 35 86t85 35t83 -35q35 -35 36 -85t-34 -85q-33 -37 -83 -37t-85 35q-37 33 -37 86z" />
<glyph unicode="&#xdd;" horiz-adv-x="972" d="M387 1699l263 318l131 -107l-295 -295zM-59 1475h206l293 -547q39 -72 47 -137q6 63 45 137l295 547h205l-457 -822v-653h-176v653z" />
<glyph unicode="&#xdf;" horiz-adv-x="1112" d="M119 0v1079q0 274 223 383q55 27 119 37q195 27 332 -88t141 -299q0 -33 -2 -51q-14 -123 -98 -201q-41 -39 -91 -55q113 -16 203 -109q82 -84 100.5 -207.5t-34.5 -257.5q-53 -125 -157.5 -192.5t-252.5 -67.5q-88 0 -168 33l-22 8l-19 8l45 175l15 -11l14 -8 q4 -2 13 -6t14 -6q133 -57 256 22q96 61 120 179q29 145 -54 240t-245 95h-141l2 168h74q221 0 252 205q6 47 -2 86q-20 92 -96 142.5t-175 35.5q-39 -6 -73 -24q-123 -63 -123 -238v-1075h-170z" />
<glyph unicode="&#xe0;" horiz-adv-x="1198" d="M72 575q20 150 116 269q96 117 235.5 155.5t272.5 -6.5t213 -162v156h170v-987h-170v143q-25 -35 -49 -59q-152 -150 -387 -109q-152 25 -257 129.5t-138 268.5q-20 102 -6 202zM244 475q4 -121 62.5 -209t154.5 -125q150 -59 289 25q137 84 161 264q16 115 -20.5 212 t-114.5 155q-100 66 -202.5 66.5t-189.5 -67t-122 -180.5q-20 -67 -18 -141zM350 1370l133 109l262 -316l-104 -86z" />
<glyph unicode="&#xe1;" horiz-adv-x="1198" d="M72 575q20 150 116 269q96 117 235.5 155.5t272.5 -6.5t213 -162v156h170v-987h-170v143q-25 -35 -49 -59q-152 -150 -387 -109q-152 25 -257 129.5t-138 268.5q-20 102 -6 202zM244 475q4 -121 62.5 -209t154.5 -125q150 -59 289 25q137 84 161 264q16 115 -20.5 212 t-114.5 155q-100 66 -202.5 66.5t-189.5 -67t-122 -180.5q-20 -67 -18 -141zM471 1167l262 318l131 -107l-295 -295z" />
<glyph unicode="&#xe2;" horiz-adv-x="1198" d="M72 575q20 150 116 269q96 117 235.5 155.5t272.5 -6.5t213 -162v156h170v-987h-170v143q-25 -35 -49 -59q-152 -150 -387 -109q-152 25 -257 129.5t-138 268.5q-20 102 -6 202zM244 475q4 -121 62.5 -209t154.5 -125q150 -59 289 25q137 84 161 264q16 115 -20.5 212 t-114.5 155q-100 66 -202.5 66.5t-189.5 -67t-122 -180.5q-20 -67 -18 -141zM250 1208l350 236l346 -238l-80 -125l-266 183l-274 -170z" />
<glyph unicode="&#xe3;" horiz-adv-x="1198" d="M72 575q20 150 116 269q96 117 235.5 155.5t272.5 -6.5t213 -162v156h170v-987h-170v143q-25 -35 -49 -59q-152 -150 -387 -109q-152 25 -257 129.5t-138 268.5q-20 102 -6 202zM244 475q4 -121 62.5 -209t154.5 -125q150 -59 289 25q137 84 161 264q16 115 -20.5 212 t-114.5 155q-100 66 -202.5 66.5t-189.5 -67t-122 -180.5q-20 -67 -18 -141zM297 1110v137q4 2 12 4t13 4q96 27 210 2l11 -2l71 -18q6 0 17.5 -2t17.5 -4q152 -31 252 33v-144q-4 -2 -12 -5t-10 -3q-115 -39 -275 -2l-45 8l-41 10q-14 6 -35 7q-76 12 -157 -15 q-4 -2 -14.5 -5t-14.5 -5z" />
<glyph unicode="&#xe4;" horiz-adv-x="1198" d="M72 575q20 150 116 269q96 117 235.5 155.5t272.5 -6.5t213 -162v156h170v-987h-170v143q-25 -35 -49 -59q-152 -150 -387 -109q-152 25 -257 129.5t-138 268.5q-20 102 -6 202zM244 475q4 -121 62.5 -209t154.5 -125q150 -59 289 25q137 84 161 264q16 115 -20.5 212 t-114.5 155q-100 66 -202.5 66.5t-189.5 -67t-122 -180.5q-20 -67 -18 -141zM270 1274q0 49 35 84t84 35t82 -35q35 -35 35 -84t-35 -84q-33 -35 -82 -35t-84 35t-35 84zM688 1274q0 51 35 82q33 35 82 36t84 -34q33 -35 33 -84t-33 -84q-35 -35 -84 -35t-84 35 q-33 37 -33 84z" />
<glyph unicode="&#xe5;" horiz-adv-x="1198" d="M78 377q-29 139 6 269t113.5 218t192.5 131t237 23q190 -33 276 -178v147h176v-987h-176v143q-55 -96 -172 -145t-258 -25q-154 27 -258 133.5t-137 270.5zM244 479q2 -123 60 -211t157 -127q150 -59 289 25q137 80 163 266q14 113 -20 213q-37 106 -129 167.5 t-199.5 57.5t-191.5 -73q-135 -119 -129 -318zM383 1276q0 82 58.5 139.5t140.5 57.5t139 -58q57 -59 57 -139t-57 -139q-57 -57 -139 -57.5t-140.5 57t-58.5 139.5zM481 1276q0 -39 29 -72q29 -29 72 -28.5t71.5 29t28.5 71.5t-28.5 71.5t-70.5 28.5t-71 -28 q-31 -29 -31 -72z" />
<glyph unicode="&#xe6;" horiz-adv-x="1818" d="M76 219q-39 152 55 273.5t295 148.5q82 10 145 2q150 -16 226 -86v37q-16 178 -153.5 248.5t-373.5 -6.5q-10 -4 -53 -23l-53 129q33 18 74 31q186 63 327.5 42.5t227.5 -94t96 -176.5q20 133 165.5 212t331.5 38q170 -37 268.5 -163.5t106.5 -329.5q2 -47 -4 -105h-805 q4 -25 9 -32q49 -203 251 -238q33 -6 70 -6q190 4 287 164q4 6 20 39l150 -80q-6 -8 -16.5 -26.5t-14.5 -27.5q-115 -166 -295 -210q-184 -43 -330.5 16t-205.5 184q-4 -12 -9 -18q-47 -98 -163.5 -153.5t-274.5 -45.5q-133 8 -229 80t-125 176zM229 291q4 -76 62.5 -124 t165.5 -54q115 -8 197.5 34.5t115.5 118.5q12 29 16 43q16 80 -12.5 122t-120.5 67q-51 12 -94 14q-164 8 -250 -56.5t-80 -164.5zM954 545h621q0 31 -2 45q-16 152 -139 228.5t-277 23.5q-162 -55 -196 -230q-7 -34 -7 -67z" />
<glyph unicode="&#xe7;" horiz-adv-x="929" d="M74 578q16 104 71 192q176 281 549 238q102 -8 199 -62l-53 -158l-49 25q-193 82 -351.5 3t-189.5 -263q-33 -195 92 -323t320 -99q63 10 120 37q29 12 56 31l61 -152q-109 -59 -215 -74q-266 -39 -446 115q-100 88 -144.5 217.5t-19.5 272.5zM352 -334l185 279l129 -72 l-199 -266z" />
<glyph unicode="&#xe8;" horiz-adv-x="1120" d="M66 463q-8 207 101 354.5t288 183.5q246 53 419 -85t187 -404q2 -31 -2 -96h-811q0 -2 6 -39q29 -123 118 -192.5t212 -65.5q182 4 284 178q8 12 15 22l153 -88q-6 -14 -16 -26q-184 -272 -524 -234q-184 23 -303 158t-127 334zM246 563h624q0 6 -1 18.5t-1 18.5 q-16 139 -124.5 215t-249.5 43q-88 -20 -149.5 -84.5t-88.5 -165.5q-8 -27 -10 -45zM311 1370l133 109l263 -316l-105 -86z" />
<glyph unicode="&#xe9;" horiz-adv-x="1120" d="M66 463q-8 207 101 354.5t288 183.5q246 53 419 -85t187 -404q2 -31 -2 -96h-811q0 -2 6 -39q29 -123 118 -192.5t212 -65.5q182 4 284 178q8 12 15 22l153 -88q-6 -14 -16 -26q-184 -272 -524 -234q-184 23 -303 158t-127 334zM246 563h624q0 6 -1 18.5t-1 18.5 q-16 139 -124.5 215t-249.5 43q-88 -20 -149.5 -84.5t-88.5 -165.5q-8 -27 -10 -45zM432 1167l262 318l131 -107l-295 -295z" />
<glyph unicode="&#xea;" horiz-adv-x="1120" d="M66 463q-8 207 101 354.5t288 183.5q246 53 419 -85t187 -404q2 -31 -2 -96h-811q0 -2 6 -39q29 -123 118 -192.5t212 -65.5q182 4 284 178q8 12 15 22l153 -88q-6 -14 -16 -26q-184 -272 -524 -234q-184 23 -303 158t-127 334zM211 1208l350 236l346 -238l-80 -125 l-266 183l-274 -170zM246 563h624q0 6 -1 18.5t-1 18.5q-16 139 -124.5 215t-249.5 43q-88 -20 -149.5 -84.5t-88.5 -165.5q-8 -27 -10 -45z" />
<glyph unicode="&#xeb;" horiz-adv-x="1120" d="M66 463q-8 207 101 354.5t288 183.5q246 53 419 -85t187 -404q2 -31 -2 -96h-811q0 -2 6 -39q29 -123 118 -192.5t212 -65.5q182 4 284 178q8 12 15 22l153 -88q-6 -14 -16 -26q-184 -272 -524 -234q-184 23 -303 158t-127 334zM236 1200q0 51 34 82q33 33 82 33t82 -33 q35 -33 36 -82t-34 -84t-84 -35t-82 35q-34 35 -34 84zM246 563h624q0 6 -1 18.5t-1 18.5q-16 139 -124.5 215t-249.5 43q-88 -20 -149.5 -84.5t-88.5 -165.5q-8 -27 -10 -45zM649 1200q0 47 34 82t83 35t82 -33q35 -35 36 -84t-34 -84t-84 -35q-49 2 -84 37t-33 82z" />
<glyph unicode="&#xec;" horiz-adv-x="339" d="M-78 1370l133 109l262 -316l-104 -86zM88 0v987h170v-987h-170z" />
<glyph unicode="&#xed;" horiz-adv-x="339" d="M43 1167l262 318l131 -107l-295 -295zM88 0v987h170v-987h-170z" />
<glyph unicode="&#xee;" horiz-adv-x="339" d="M-178 1208l350 236l346 -238l-80 -125l-266 183l-274 -170zM88 0v987h170v-987h-170z" />
<glyph unicode="&#xef;" horiz-adv-x="339" d="M-154 1200q0 51 35 82q33 33 82 33t82 -33q35 -33 36 -82t-34 -84t-84 -35t-82 35q-35 35 -35 84zM88 0v987h170v-987h-170zM260 1200q0 47 34 82t83 35t82 -33q35 -35 36 -84t-34 -84t-84 -35q-49 2 -84 37t-33 82z" />
<glyph unicode="&#xf1;" horiz-adv-x="1069" d="M119 0v987h170v-162q6 10 14 23q98 141 240 162q186 31 296.5 -75t110.5 -312v-623h-170v584q0 158 -76.5 230.5t-209.5 43.5q-96 -23 -150.5 -102.5t-54.5 -206.5v-549h-170zM233 1110v137q4 2 12.5 4t12.5 4q96 27 211 2l10 -2l72 -18q6 0 17.5 -2t17.5 -4 q152 -31 252 33v-144q-4 -2 -12.5 -5t-10.5 -3q-115 -39 -274 -2l-45 8l-41 10q-16 6 -35 7q-76 12 -158 -15q-4 -2 -14.5 -5t-14.5 -5z" />
<glyph unicode="&#xf2;" horiz-adv-x="1200" d="M66 491.5q0 223.5 151.5 373t382.5 149.5q264 0 419 -188.5t103 -446.5q-35 -178 -179 -293t-343 -115q-231 0 -382.5 148.5t-151.5 372zM238 491.5q0 -139.5 81.5 -238.5t215.5 -124q66 -12 131 0q154 29 235.5 151.5t52.5 284.5q-18 111 -97 188.5t-191 100.5 q-66 12 -131 0q-133 -25 -215 -124t-82 -238.5zM352 1370l133 109l263 -316l-105 -86z" />
<glyph unicode="&#xf3;" horiz-adv-x="1200" d="M66 491.5q0 223.5 151.5 373t382.5 149.5q264 0 419 -188.5t103 -446.5q-35 -178 -179 -293t-343 -115q-231 0 -382.5 148.5t-151.5 372zM238 491.5q0 -139.5 81.5 -238.5t215.5 -124q66 -12 131 0q154 29 235.5 151.5t52.5 284.5q-18 111 -97 188.5t-191 100.5 q-66 12 -131 0q-133 -25 -215 -124t-82 -238.5zM473 1167l262 318l131 -107l-295 -295z" />
<glyph unicode="&#xf4;" horiz-adv-x="1200" d="M66 491.5q0 223.5 151.5 373t382.5 149.5q264 0 419 -188.5t103 -446.5q-35 -178 -179 -293t-343 -115q-231 0 -382.5 148.5t-151.5 372zM238 491.5q0 -139.5 81.5 -238.5t215.5 -124q66 -12 131 0q154 29 235.5 151.5t52.5 284.5q-18 111 -97 188.5t-191 100.5 q-66 12 -131 0q-133 -25 -215 -124t-82 -238.5zM252 1208l350 236l346 -238l-80 -125l-266 183l-274 -170z" />
<glyph unicode="&#xf5;" horiz-adv-x="1200" d="M66 491.5q0 223.5 151.5 373t382.5 149.5q264 0 419 -188.5t103 -446.5q-35 -178 -179 -293t-343 -115q-231 0 -382.5 148.5t-151.5 372zM238 491.5q0 -139.5 81.5 -238.5t215.5 -124q66 -12 131 0q154 29 235.5 151.5t52.5 284.5q-18 111 -97 188.5t-191 100.5 q-66 12 -131 0q-133 -25 -215 -124t-82 -238.5zM299 1110v137q4 2 12 4t13 4q96 27 211 2l10 -2l71 -18q6 0 17.5 -2t17.5 -4q152 -31 252 33v-144q-4 -2 -12 -5t-10 -3q-115 -39 -275 -2l-45 8l-41 10q-16 6 -35 7q-76 12 -157 -15q-4 -2 -14.5 -5t-14.5 -5z" />
<glyph unicode="&#xf6;" horiz-adv-x="1200" d="M66 491.5q0 223.5 151.5 373t382.5 149.5q264 0 419 -188.5t103 -446.5q-35 -178 -179 -293t-343 -115q-231 0 -382.5 148.5t-151.5 372zM238 491.5q0 -139.5 81.5 -238.5t215.5 -124q66 -12 131 0q154 29 235.5 151.5t52.5 284.5q-18 111 -97 188.5t-191 100.5 q-66 12 -131 0q-133 -25 -215 -124t-82 -238.5zM287 1272q-2 49 33.5 85t87.5 34q49 -4 81 -37q33 -35 33 -82t-34.5 -82t-81.5 -35q-49 0 -84 34t-35 83zM678 1270q-2 49 31.5 84t83.5 37q49 0 83.5 -35t34.5 -83t-34 -83q-31 -35 -82 -35q-47 0 -82 34t-35 81z" />
<glyph unicode="&#xf8;" horiz-adv-x="1214" d="M66 27l131 118q-172 184 -119 463q39 201 217 318.5t399 83.5q150 -25 269 -125l122 125l64 -68l-129 -115q80 -98 104 -221q49 -258 -105.5 -446.5t-418.5 -188.5q-193 -2 -342 121l-133 -131zM252 414q12 -78 59 -144l531 504q-70 63 -162 80q-158 27 -268 -45 q-199 -135 -160 -395zM377 205q125 -102 291 -74q113 20 190.5 99t97.5 190q29 166 -57 287z" />
<glyph unicode="&#xf9;" horiz-adv-x="1081" d="M119 393v594h170v-575q0 -145 63 -209q63 -70 189 -70q252 0 252 279v575h170v-594q0 -176 -89.5 -283.5t-261.5 -134.5q-72 -10 -143 0q-172 27 -261 134.5t-89 283.5zM293 1370l133 109l262 -316l-104 -86z" />
<glyph unicode="&#xfa;" horiz-adv-x="1081" d="M119 393v594h170v-575q0 -145 63 -209q63 -70 189 -70q252 0 252 279v575h170v-594q0 -176 -89.5 -283.5t-261.5 -134.5q-72 -10 -143 0q-172 27 -261 134.5t-89 283.5zM414 1167l262 318l131 -107l-295 -295z" />
<glyph unicode="&#xfb;" horiz-adv-x="1081" d="M119 393v594h170v-575q0 -145 63 -209q63 -70 189 -70q252 0 252 279v575h170v-594q0 -176 -89.5 -283.5t-261.5 -134.5q-72 -10 -143 0q-172 27 -261 134.5t-89 283.5zM193 1208l350 236l346 -238l-80 -125l-266 183l-275 -170z" />
<glyph unicode="&#xfc;" horiz-adv-x="1081" d="M119 393v594h170v-575q0 -145 63 -209q63 -70 189 -70q252 0 252 279v575h170v-594q0 -176 -89.5 -283.5t-261.5 -134.5q-72 -10 -143 0q-172 27 -261 134.5t-89 283.5zM221 1272q0 49 35 84t82 35t82 -35q35 -33 35 -82t-35 -84t-82 -35t-82 35q-31 35 -35 82zM627 1272 q0 47 32 84q35 35 83.5 35t82.5 -35q35 -33 35 -82t-34.5 -84t-82 -35t-82 35t-34.5 82z" />
<glyph unicode="&#xfd;" horiz-adv-x="858" d="M333 1220l263 318l131 -107l-295 -295zM-59 987h184l258 -649l20 -53l7 -17q12 -47 18 -92q10 68 49 166l256 645h191l-441 -1063l-20 -49l-33 -72q-53 -117 -135 -165q-70 -42 -175 -43q-17 0 -36 2q-41 4 -84 12q-4 2 -14.5 5t-16.5 3l43 158q4 0 11.5 -2t11.5 -4 q43 -13 79 -13q46 0 82 21q62 37 109 151l25 58l10 26z" />
<glyph unicode="&#xff;" horiz-adv-x="858" d="M-59 987h184l258 -649l20 -53l7 -17q12 -47 18 -92q10 68 49 166l256 645h191l-441 -1063l-20 -49l-33 -72q-53 -117 -135 -166t-211 -40q-41 4 -84 12q-4 2 -14.5 5t-16.5 3l43 158q4 0 11.5 -2t11.5 -4q98 -29 160.5 8t109.5 151l25 58l10 26zM104 1200q0 51 35 82 q33 33 82 33t82 -33q35 -33 36 -82t-34 -84t-84 -35t-82 35q-35 35 -35 84zM518 1200q0 47 34 82t83 35t82 -33q35 -35 36 -84t-34 -84t-84 -35q-49 2 -84 37t-33 82z" />
<glyph unicode="&#x152;" horiz-adv-x="2211" d="M88 879q51 270 258 444t485 178q84 0 144 -10q272 -45 395 -209v193h754v-156h-578v-434h496v-156h-496v-573h606v-156h-782v190q-84 -119 -259 -181t-388 -29q-215 33 -375 162.5t-230.5 325.5t-29.5 411zM254 723q4 -74 16 -125q45 -184 175 -303t315 -148 q305 -45 460.5 104.5t161.5 479.5q6 272 -96 411.5t-334 178.5q-248 41 -444.5 -97.5t-243.5 -381.5q-10 -66 -10 -119z" />
<glyph unicode="&#x153;" horiz-adv-x="2002" d="M76 383q-27 131 12 258t131 217q117 115 275 141q182 33 331.5 -34.5t223.5 -208.5q51 127 178 198q147 84 342 41q166 -37 266 -159.5t113 -307.5q4 -66 -6 -127h-803q4 -20 8 -32q29 -119 116 -183.5t214 -60.5q178 6 274 154q4 6 27 45l147 -80q-18 -35 -43 -68 q-156 -209 -414 -209q-156 -2 -274.5 75t-151.5 187q-74 -162 -251 -228.5t-394 3.5q-129 45 -211.5 143.5t-109.5 235.5zM238 494q-2 -139 76.5 -238.5t211.5 -122.5q164 -29 286 54t149 239q33 197 -99.5 325t-335.5 91q-129 -23 -207.5 -118t-80.5 -230zM1149 549h606 q2 29 -4 59q-23 129 -121 199t-233 43q-90 -16 -155.5 -79.5t-86.5 -156.5q-6 -30 -6 -65z" />
<glyph unicode="&#x178;" horiz-adv-x="972" d="M-59 1475h206l293 -547q39 -72 47 -137q6 63 45 137l295 547h205l-457 -822v-653h-176v653zM162 1688q0 51 35 81q33 33 82 33t81 -33q35 -33 36 -82t-33.5 -83.5t-84 -34.5t-81.5 35q-35 35 -35 84zM575 1688q0 47 34 81.5t83 34.5t82 -32q35 -35 36 -84.5t-34 -84 t-84 -34.5q-49 2 -84 37t-33 82z" />
<glyph unicode="&#x2c6;" horiz-adv-x="700" d="M2 1208l350 236l346 -238l-80 -125l-266 183l-274 -170z" />
<glyph unicode="&#x2dc;" horiz-adv-x="608" d="M2 1110v137q4 2 12.5 4t12.5 4q96 27 211 2l10 -2l71 -18q6 0 17.5 -2t17.5 -4q152 -31 252 33v-144q-4 -2 -12 -5t-10 -3q-115 -39 -275 -2l-45 8l-41 10q-16 6 -35 7q-76 12 -157 -15q-4 -2 -14.5 -5t-14.5 -5z" />
<glyph unicode="&#x2000;" horiz-adv-x="1007" />
<glyph unicode="&#x2001;" horiz-adv-x="2017" />
<glyph unicode="&#x2002;" horiz-adv-x="1007" />
<glyph unicode="&#x2003;" horiz-adv-x="2017" />
<glyph unicode="&#x2004;" horiz-adv-x="671" />
<glyph unicode="&#x2005;" horiz-adv-x="503" />
<glyph unicode="&#x2006;" horiz-adv-x="335" />
<glyph unicode="&#x2007;" horiz-adv-x="335" />
<glyph unicode="&#x2008;" horiz-adv-x="251" />
<glyph unicode="&#x2009;" horiz-adv-x="403" />
<glyph unicode="&#x200a;" horiz-adv-x="110" />
<glyph unicode="&#x2010;" horiz-adv-x="620" d="M74 414v164h473v-164h-473z" />
<glyph unicode="&#x2011;" horiz-adv-x="620" d="M74 414v164h473v-164h-473z" />
<glyph unicode="&#x2012;" horiz-adv-x="620" d="M74 414v164h473v-164h-473z" />
<glyph unicode="&#x2013;" horiz-adv-x="1171" d="M106 678v151h959v-151h-959z" />
<glyph unicode="&#x2014;" horiz-adv-x="937" d="M59 412v182h820v-182h-820z" />
<glyph unicode="&#x2018;" horiz-adv-x="389" d="M14 1006l187 505l129 -34l-123 -523z" />
<glyph unicode="&#x2019;" horiz-adv-x="389" d="M14 989l119 522l197 -51l-187 -504z" />
<glyph unicode="&#x201a;" horiz-adv-x="385" d="M14 -268l121 522l191 -49l-183 -506z" />
<glyph unicode="&#x201c;" horiz-adv-x="712" d="M14 1006l187 505l129 -34l-123 -523zM338 1006l186 505l129 -34l-123 -523z" />
<glyph unicode="&#x201d;" horiz-adv-x="712" d="M14 1004l119 522l197 -51l-187 -504zM338 1004l121 522l194 -51l-186 -504z" />
<glyph unicode="&#x201e;" horiz-adv-x="710" d="M14 -268l121 522l191 -49l-183 -506zM338 -268l121 522l192 -49l-184 -506z" />
<glyph unicode="&#x2022;" horiz-adv-x="749" d="M102 737.5q0 112.5 80 192.5t192.5 80t192.5 -79t80 -193.5t-80 -193.5t-192.5 -79t-192.5 80t-80 192.5z" />
<glyph unicode="&#x2026;" horiz-adv-x="1171" d="M84 92q0 47 31.5 79t79 32t79 -32t31.5 -79t-31.5 -78.5t-79 -31.5t-79 31.5t-31.5 78.5zM475 92q0 47 33 79t78 32t77.5 -32t32.5 -79t-32.5 -78.5t-77.5 -31.5t-78 31.5t-33 78.5zM866 92q0 47 32 79t79 32q45 0 77.5 -33t32.5 -78t-32.5 -77.5t-77.5 -32.5 q-47 0 -79 31.5t-32 78.5z" />
<glyph unicode="&#x202f;" horiz-adv-x="403" />
<glyph unicode="&#x2039;" horiz-adv-x="798" d="M74 498l544 477l107 -117l-422 -356l420 -371l-102 -121z" />
<glyph unicode="&#x203a;" horiz-adv-x="800" d="M74 131l424 365l-422 370l102 115l549 -492l-549 -479z" />
<glyph unicode="&#x2044;" horiz-adv-x="382" d="M-266 18l823 1495l92 -65l-827 -1495z" />
<glyph unicode="&#x205f;" horiz-adv-x="503" />
<glyph unicode="&#x2122;" horiz-adv-x="1501" d="M102 1378v97h443v-97h-168v-641h-109v641h-166zM520 737l146 760h43l219 -489l12 -29l6 -16q12 -45 12 -74q6 57 31 119l221 489h43l146 -760h-109l-76 439l-4 24l-2 12q-4 37 2 70q-6 -31 -18 -68l-10 -24l-2 -10l-205 -461h-31l-205 461l-4 12l-8 22q-14 45 -18 68 q6 -33 2 -70l-2 -12l-4 -24l-76 -439h-109z" />
<glyph unicode="&#xe000;" horiz-adv-x="985" d="M0 985h985v-985h-985v985z" />
<glyph unicode="&#xfb01;" horiz-adv-x="1171" d="M195 438l282 281l-282 282l104 105l281 -283l282 283l115 -115l-283 -282l283 -281l-105 -104l-280 280l-283 -280z" />
<glyph unicode="&#xfb02;" horiz-adv-x="739" d="M76 0v154h215v1163h-213v158h385v-1321h215v-154h-602z" />
<glyph unicode="&#xfb03;" horiz-adv-x="1368" d="M1051 1274q0 47 34 81t83 36q49 0 84 -35q35 -33 35 -82t-35 -84t-84 -35q-49 2 -83 37t-34 82zM1084 0v987h170v-987h-170zM481 840v147h145v168q0 195 126 289q79 59 189 59q64 0 138 -20q10 -2 31 -10l-43 -150q-4 2 -13.5 6t-13.5 6q-40 14 -75 14q-26 0 -50 -8 q-68 -18 -93.5 -64t-25.5 -149v-141h271v-147h-271v-840h-170v840h-145zM0 840v147h145v168q0 195 126 289q79 59 189 59q64 0 138 -20q10 -2 31 -10l-43 -150q-4 2 -13.5 6t-13.5 6q-40 14 -75 14q-26 0 -50 -8q-68 -18 -93.5 -64t-25.5 -149v-141h271v-147h-271v-840h-170 v840h-145z" />
<glyph unicode="&#xfb04;" horiz-adv-x="1370" d="M1082 0v1475h170v-1475h-170zM481 840v147h145v168q0 195 126 289q79 59 189 59q64 0 138 -20q10 -2 31 -10l-43 -150q-4 2 -13.5 6t-13.5 6q-40 14 -75 14q-26 0 -50 -8q-68 -18 -93.5 -64t-25.5 -149v-141h271v-147h-271v-840h-170v840h-145zM0 840v147h145v168 q0 195 126 289q79 59 189 59q64 0 138 -20q10 -2 31 -10l-43 -150q-4 2 -13.5 6t-13.5 6q-40 14 -75 14q-26 0 -50 -8q-68 -18 -93.5 -64t-25.5 -149v-141h271v-147h-271v-840h-170v840h-145z" />
</font>
</defs>
</svg>
